<svg width="325" height="300" viewBox="0 0 325 300" fill="none" xmlns="http://www.w3.org/2000/svg">
<g opacity="0.3">
<path d="M103.094 79.4812H152.571C153.655 79.4845 154.724 79.2406 155.699 78.7682C156.674 78.2958 157.528 77.6073 158.196 76.7551C158.877 75.8948 159.353 74.8906 159.587 73.8188C159.821 72.7471 159.807 71.636 159.547 70.5703C154.987 51.4701 154.987 31.5648 159.547 12.4646C159.807 11.3989 159.821 10.288 159.587 9.21631C159.353 8.14463 158.877 7.14045 158.197 6.28017C157.528 5.4279 156.674 4.73936 155.699 4.26696C154.724 3.79456 153.655 3.55075 152.571 3.55408H103.094C101.385 3.55899 99.7344 4.17011 98.4346 5.2786C97.1348 6.38709 96.2707 7.92098 95.9961 9.60705C92.7398 30.7562 92.7398 52.2791 95.9961 73.4282C96.2707 75.1143 97.1348 76.6482 98.4346 77.7567C99.7344 78.8652 101.385 79.4763 103.094 79.4812Z" fill="#E6E6E6"/>
<path d="M152.571 7.27694C153.092 7.27519 153.605 7.39211 154.073 7.61881C154.542 7.8455 154.952 8.17599 155.273 8.58515C155.604 9.00436 155.835 9.49349 155.948 10.0153C156.061 10.5372 156.054 11.078 155.927 11.5966C151.231 31.2675 151.23 51.7677 155.927 71.4386C156.054 71.9571 156.061 72.4978 155.948 73.0196C155.835 73.5413 155.604 74.0304 155.273 74.4495L155.273 74.4498C154.952 74.859 154.542 75.1896 154.073 75.4164C153.605 75.6431 153.092 75.7601 152.571 75.7583H103.094C102.273 75.7586 101.48 75.4677 100.854 74.9374C100.228 74.4071 99.8102 73.6718 99.6757 72.8626C96.4772 52.0883 96.4772 30.9469 99.6757 10.1727C99.8102 9.36341 100.228 8.62816 100.854 8.09786C101.48 7.56756 102.273 7.27665 103.094 7.27693L152.571 7.27694Z" fill="white"/>
<path d="M113.891 25.1781H139.855C140.842 25.177 141.788 24.7845 142.486 24.0866C143.184 23.3886 143.576 22.4424 143.577 21.4554V20.0006C143.576 19.0136 143.184 18.0674 142.486 17.3694C141.788 16.6715 140.842 16.279 139.855 16.2779H113.891C112.904 16.279 111.958 16.6715 111.26 17.3694C110.562 18.0674 110.169 19.0136 110.168 20.0006V21.4554C110.169 22.4424 110.562 23.3887 111.26 24.0866C111.958 24.7845 112.904 25.177 113.891 25.1781Z" fill="#E6E6E6"/>
<path d="M113.891 43.5602H139.855C140.842 43.5591 141.788 43.1665 142.486 42.4686C143.184 41.7707 143.576 40.8245 143.577 39.8375V38.3827C143.576 37.3957 143.184 36.4494 142.486 35.7515C141.788 35.0536 140.842 34.661 139.855 34.66H113.891C112.904 34.6611 111.958 35.0536 111.26 35.7515C110.562 36.4494 110.169 37.3957 110.168 38.3827V39.8375C110.169 40.8245 110.562 41.7707 111.26 42.4686C111.958 43.1665 112.904 43.5591 113.891 43.5602Z" fill="#E6E6E6"/>
<path d="M113.891 61.9422H139.855C140.842 61.9412 141.788 61.5486 142.486 60.8507C143.184 60.1528 143.576 59.2065 143.577 58.2195V56.7648C143.576 55.7778 143.184 54.8315 142.486 54.1336C141.788 53.4357 140.842 53.0431 139.855 53.0421H113.891C112.904 53.0431 111.958 53.4357 111.26 54.1336C110.562 54.8315 110.169 55.7778 110.168 56.7648V58.2195C110.169 59.2065 110.562 60.1528 111.26 60.8507C111.958 61.5486 112.904 61.9412 113.891 61.9422Z" fill="#E6E6E6"/>
<path d="M10.0224 126.637H59.5001C60.5833 126.641 61.6529 126.397 62.6276 125.924C63.6024 125.452 64.4566 124.763 65.1251 123.911C65.8058 123.051 66.2813 122.047 66.5154 120.975C66.7494 119.903 66.7358 118.792 66.4756 117.726C61.9155 98.6263 61.9156 78.7209 66.4759 59.6208C66.7359 58.5551 66.7494 57.4442 66.5153 56.3725C66.2813 55.3008 65.8059 54.2966 65.1253 53.4363C64.4567 52.5841 63.6025 51.8955 62.6278 51.4231C61.653 50.9507 60.5833 50.7069 59.5001 50.7102H10.0224C8.31417 50.7151 6.66311 51.3263 5.36331 52.4348C4.06351 53.5433 3.19939 55.0771 2.92485 56.7632C-0.331444 77.9123 -0.331444 99.4352 2.92485 120.584C3.19939 122.27 4.06351 123.804 5.36331 124.913C6.66311 126.021 8.31417 126.632 10.0224 126.637Z" fill="#E6E6E6"/>
<path d="M59.5001 54.4331C60.0203 54.4313 60.534 54.5483 61.0022 54.775C61.4704 55.0016 61.8807 55.3322 62.202 55.7413C62.5327 56.1605 62.7636 56.6497 62.8768 57.1715C62.9901 57.6933 62.9829 58.2342 62.8558 58.7528C58.1592 78.4237 58.1591 98.9239 62.8554 118.595C62.9827 119.113 62.99 119.654 62.8768 120.176C62.7636 120.698 62.5328 121.187 62.2021 121.606L62.2018 121.606C61.8807 122.015 61.4704 122.346 61.0022 122.573C60.534 122.799 60.0203 122.916 59.5001 122.914H10.0225C9.20208 122.915 8.40823 122.624 7.78228 122.094C7.15634 121.563 6.73892 120.828 6.60439 120.019C3.40597 99.2445 3.40597 78.1031 6.60439 57.3288C6.73892 56.5196 7.15634 55.7843 7.78228 55.254C8.40823 54.7237 9.20208 54.4328 10.0225 54.4331L59.5001 54.4331Z" fill="white"/>
<path d="M108.678 180.308H158.156C159.286 180.312 160.402 180.057 161.419 179.565C162.436 179.072 163.327 178.353 164.024 177.464C164.734 176.567 165.23 175.52 165.474 174.402C165.718 173.285 165.704 172.126 165.433 171.015C160.884 151.962 160.884 132.107 165.433 113.054C165.704 111.943 165.718 110.784 165.474 109.667C165.23 108.549 164.734 107.502 164.025 106.605C163.327 105.716 162.436 104.998 161.419 104.505C160.402 104.012 159.286 103.757 158.156 103.761H108.678C106.896 103.766 105.173 104.404 103.817 105.561C102.462 106.717 101.56 108.318 101.274 110.077C98.0128 131.257 98.0128 152.812 101.274 173.993C101.56 175.752 102.462 177.352 103.817 178.509C105.173 179.665 106.896 180.303 108.678 180.308Z" fill="#F2F2F2"/>
<path d="M20.8196 81.6414H46.7834C47.7704 81.6403 48.7166 81.2478 49.4146 80.5499C50.1125 79.852 50.505 78.9057 50.5061 77.9187V76.4639C50.505 75.4769 50.1125 74.5307 49.4146 73.8328C48.7166 73.1349 47.7704 72.7423 46.7834 72.7412H20.8196C19.8326 72.7423 18.8863 73.1349 18.1884 73.8328C17.4905 74.5307 17.0979 75.4769 17.0969 76.4639V77.9187C17.0979 78.9057 17.4905 79.852 18.1884 80.5499C18.8863 81.2478 19.8326 81.6403 20.8196 81.6414Z" fill="#E6E6E6"/>
<path d="M20.8196 100.023H46.7834C47.7704 100.022 48.7166 99.6298 49.4146 98.9319C50.1125 98.234 50.505 97.2878 50.5061 96.3008V94.846C50.505 93.859 50.1125 92.9127 49.4146 92.2148C48.7166 91.5169 47.7704 91.1244 46.7834 91.1233H20.8196C19.8326 91.1244 18.8863 91.5169 18.1884 92.2148C17.4905 92.9127 17.0979 93.859 17.0969 94.846V96.3008C17.0979 97.2878 17.4905 98.234 18.1884 98.9319C18.8863 99.6298 19.8326 100.022 20.8196 100.023Z" fill="#E6E6E6"/>
<path d="M133.278 156.05C125.397 156.05 119.008 149.66 119.008 141.779C119.008 133.897 125.397 127.508 133.278 127.508C141.16 127.508 147.549 133.897 147.549 141.779C147.549 149.66 141.16 156.05 133.278 156.05Z" fill="white"/>
<path d="M126.453 139.917H131.417V134.953C131.417 134.46 131.613 133.986 131.962 133.637C132.311 133.288 132.785 133.092 133.279 133.092C133.772 133.092 134.246 133.288 134.595 133.637C134.944 133.986 135.14 134.46 135.14 134.953V139.917H140.104C140.597 139.917 141.071 140.113 141.42 140.462C141.769 140.812 141.965 141.285 141.965 141.779C141.965 142.272 141.769 142.746 141.42 143.095C141.071 143.444 140.597 143.64 140.104 143.64H135.14V148.604C135.14 149.098 134.944 149.571 134.595 149.92C134.246 150.269 133.772 150.465 133.279 150.465C132.785 150.465 132.311 150.269 131.962 149.92C131.613 149.571 131.417 149.098 131.417 148.604V143.64H126.453C125.96 143.64 125.486 143.444 125.137 143.095C124.788 142.746 124.592 142.272 124.592 141.779C124.592 141.285 124.788 140.812 125.137 140.462C125.486 140.113 125.96 139.917 126.453 139.917Z" fill="#E6E6E6"/>
<path d="M115.285 10.5481H141.345C142.085 10.5473 142.795 10.2528 143.318 9.72937C143.842 9.20592 144.136 8.49621 144.137 7.75595V2.79214C144.136 2.05187 143.842 1.34217 143.318 0.81872C142.795 0.295273 142.085 0.000834266 141.345 0H115.285C114.544 0.000834266 113.835 0.295273 113.311 0.81872C112.788 1.34217 112.493 2.05187 112.493 2.79214V7.75595C112.493 8.49621 112.788 9.20592 113.311 9.72937C113.835 10.2528 114.544 10.5473 115.285 10.5481Z" fill="#CCCCCC"/>
<path d="M20.9723 58.3247H47.0323C47.7726 58.3239 48.4823 58.0294 49.0057 57.506C49.5292 56.9825 49.8236 56.2728 49.8245 55.5326V50.5688C49.8236 49.8285 49.5292 49.1188 49.0057 48.5953C48.4823 48.0719 47.7726 47.7774 47.0323 47.7766H20.9723C20.2321 47.7774 19.5224 48.0719 18.9989 48.5953C18.4755 49.1188 18.181 49.8285 18.1802 50.5688V55.5326C18.181 56.2728 18.4755 56.9825 18.9989 57.506C19.5224 58.0294 20.2321 58.3239 20.9723 58.3247Z" fill="#CCCCCC"/>
<path d="M246.959 292.282H239.352L236.974 262.941H246.96L246.959 292.282Z" fill="#FFB8B8"/>
<path d="M248.899 289.798L233.918 289.798H233.918C232.664 289.798 231.423 290.045 230.264 290.524C229.106 291.004 228.054 291.707 227.167 292.594C226.281 293.48 225.577 294.533 225.098 295.691C224.618 296.849 224.371 298.091 224.371 299.345V299.655L248.899 299.656L248.899 289.798Z" fill="#2F2E41"/>
<path d="M287.91 292.282H280.303L276.684 262.941H287.912L287.91 292.282Z" fill="#FFB8B8"/>
<path d="M289.85 289.798L274.87 289.798H274.869C273.615 289.798 272.374 290.045 271.216 290.524C270.057 291.004 269.005 291.707 268.118 292.594C267.232 293.48 266.529 294.533 266.049 295.691C265.569 296.849 265.322 298.091 265.322 299.345V299.655L289.85 299.656L289.85 289.798Z" fill="#2F2E41"/>
<path d="M286.561 283.013C287.337 283.013 288.084 282.721 288.655 282.195C288.961 281.916 289.208 281.577 289.38 281.2C289.552 280.823 289.647 280.415 289.657 280L292.708 170.664L249.392 181.493L236.027 221.587C234.304 226.744 233.558 232.178 233.827 237.61L235.487 276.474C235.525 277.271 235.868 278.022 236.445 278.571C237.022 279.121 237.789 279.428 238.586 279.427H245.851C246.601 279.424 247.324 279.151 247.889 278.657C248.454 278.164 248.822 277.483 248.925 276.741L254.118 233.84C254.572 230.493 255.742 227.284 257.55 224.431L267.769 208.251C267.837 208.143 267.937 208.059 268.056 208.01C268.174 207.961 268.304 207.95 268.429 207.977C268.554 208.005 268.667 208.071 268.753 208.166C268.839 208.26 268.893 208.379 268.909 208.506L276.929 279.915C277.015 280.64 277.354 281.31 277.886 281.809C278.418 282.308 279.109 282.604 279.837 282.643L286.384 283.008C286.443 283.011 286.502 283.013 286.561 283.013Z" fill="#2F2E41"/>
<path d="M256.6 99.8762C248.184 99.8762 241.361 93.0532 241.361 84.6367C241.361 76.2201 248.184 69.3972 256.6 69.3972C265.017 69.3972 271.84 76.2201 271.84 84.6367C271.84 93.0532 265.017 99.8762 256.6 99.8762Z" fill="#FFB8B8"/>
<path d="M249.599 185.939C249.862 185.939 250.123 185.906 250.377 185.841H250.377L293.354 174.821C294.122 174.624 294.786 174.141 295.209 173.47C295.632 172.798 295.781 171.991 295.627 171.213L285.757 118.044C285.142 114.97 283.79 112.092 281.818 109.656C279.846 107.22 277.312 105.299 274.433 104.058C271.629 102.817 268.562 102.285 265.503 102.51C262.445 102.735 259.488 103.709 256.895 105.346C256.293 105.721 255.687 106.131 255.094 106.563C252.706 108.324 250.759 110.615 249.404 113.256C248.05 115.897 247.326 118.815 247.289 121.783L246.504 182.793C246.499 183.203 246.575 183.611 246.728 183.992C246.881 184.372 247.108 184.719 247.396 185.011C247.684 185.304 248.027 185.537 248.405 185.696C248.783 185.855 249.189 185.938 249.599 185.939Z" fill="#90B7D5"/>
<path d="M288.932 186.565C289.445 185.81 289.786 184.953 289.931 184.052C290.076 183.152 290.023 182.23 289.773 181.353C289.524 180.475 289.085 179.663 288.488 178.974C287.891 178.284 287.15 177.734 286.317 177.362L288.229 155.272L278.099 160.762L277.837 180.897C277.304 182.338 277.319 183.923 277.877 185.354C278.436 186.785 279.5 187.961 280.867 188.659C282.235 189.358 283.811 189.53 285.298 189.144C286.784 188.758 288.077 187.84 288.932 186.565H288.932Z" fill="#FFB8B8"/>
<path d="M285.313 174.44C285.599 174.44 285.884 174.404 286.161 174.333C286.756 174.181 287.3 173.871 287.733 173.435C288.167 173 288.475 172.455 288.625 171.859L293.603 152.076C295.343 145.167 294.514 137.861 291.269 131.517L280.84 111.114C280.181 108.672 278.588 106.586 276.405 105.307C274.222 104.028 271.623 103.658 269.17 104.278C267.947 104.587 266.798 105.135 265.789 105.891C264.78 106.648 263.931 107.597 263.291 108.683C262.638 109.786 262.211 111.007 262.035 112.276C261.859 113.545 261.937 114.837 262.265 116.075L277.111 149.274L276.935 169.152C276.93 169.853 277.141 170.539 277.539 171.116C277.937 171.694 278.502 172.135 279.159 172.381L284.127 174.226C284.507 174.367 284.908 174.44 285.313 174.44Z" fill="#90B7D5"/>
<path d="M214.246 178.439C215.153 178.336 216.025 178.035 216.803 177.557C217.58 177.08 218.243 176.438 218.746 175.677C219.248 174.916 219.577 174.053 219.71 173.151C219.844 172.249 219.777 171.328 219.516 170.454L237.506 157.493L226.737 153.396L211.304 166.333C209.865 166.869 208.673 167.914 207.953 169.271C207.233 170.627 207.035 172.201 207.398 173.693C207.761 175.185 208.658 176.493 209.92 177.367C211.183 178.242 212.722 178.624 214.246 178.439H214.246Z" fill="#FFB8B8"/>
<path d="M223.664 168.975C224.194 168.974 224.717 168.851 225.192 168.614L243.433 159.482C249.805 156.293 254.801 150.898 257.494 144.302L266.154 123.087C267.575 120.994 268.117 118.426 267.662 115.937C267.207 113.448 265.793 111.237 263.723 109.782C262.689 109.055 261.521 108.541 260.286 108.27C259.051 107.999 257.775 107.976 256.532 108.204C255.274 108.43 254.073 108.903 252.999 109.597C251.925 110.291 251 111.19 250.277 112.244L234.799 145.154L219.618 157.987C219.084 158.441 218.702 159.048 218.523 159.726C218.345 160.405 218.379 161.121 218.622 161.779L220.464 166.748C220.705 167.4 221.139 167.962 221.709 168.359C222.282 168.76 222.965 168.975 223.664 168.975Z" fill="#90B7D5"/>
<path d="M259.8 100.109C258.991 100.464 257.332 94.0118 258.075 92.7214C259.18 90.8023 259.115 90.8161 259.848 89.5464C260.581 88.2768 260.745 86.5389 259.796 85.4218C258.846 84.3046 256.649 84.4528 256.215 85.8535C256.494 83.193 253.862 81.0544 251.256 80.4534C248.649 79.8524 245.9 80.2256 243.278 79.6907C240.237 79.0701 237.072 76.5203 238.285 73.1753C238.494 72.6184 238.805 72.106 239.204 71.665C240.607 70.0884 242.568 69.4152 244.486 68.7643C248.476 67.4102 252.574 66.039 256.785 66.1885C260.254 66.3699 263.596 67.5587 266.4 69.6094C269.204 71.6602 271.349 74.4839 272.574 77.735C272.864 78.5484 273.089 79.3836 273.246 80.2327C274.691 88.0037 270.179 95.6688 262.849 98.628L259.8 100.109Z" fill="#2F2E41"/>
<path opacity="0.2" d="M277.794 169.603L277.449 149.171L266.626 127.41L275.312 149.747L277.794 169.603Z" fill="black"/>
<path d="M179.649 220.878L225.34 201.895C226.341 201.482 227.236 200.847 227.955 200.036C228.673 199.226 229.198 198.263 229.488 197.219C229.787 196.163 229.841 195.054 229.646 193.974C229.451 192.895 229.012 191.874 228.363 190.989C216.823 175.101 209.186 156.719 206.069 137.331C205.9 136.247 205.486 135.216 204.859 134.316C204.231 133.416 203.407 132.671 202.448 132.138C201.504 131.607 200.451 131.299 199.37 131.237C198.288 131.175 197.207 131.36 196.208 131.779L150.517 150.763C148.941 151.422 147.651 152.62 146.876 154.143C146.101 155.665 145.892 157.413 146.285 159.075C151.393 179.855 159.651 199.731 170.772 218.012C171.673 219.464 173.059 220.549 174.685 221.074C176.31 221.598 178.07 221.529 179.649 220.878Z" fill="#E6E6E6"/>
<path d="M197.636 135.217C198.116 135.015 198.635 134.926 199.155 134.956C199.674 134.986 200.18 135.134 200.633 135.388C201.1 135.648 201.5 136.011 201.805 136.45C202.11 136.888 202.311 137.391 202.393 137.918C205.603 157.886 213.468 176.817 225.353 193.18C225.669 193.61 225.883 194.107 225.979 194.632C226.075 195.157 226.049 195.697 225.905 196.211L225.904 196.212C225.765 196.713 225.513 197.176 225.167 197.565C224.822 197.954 224.393 198.259 223.912 198.457L178.221 217.441C177.463 217.756 176.618 217.791 175.837 217.542C175.055 217.292 174.388 216.774 173.953 216.078C163.029 198.121 154.917 178.597 149.9 158.186C149.714 157.387 149.817 156.548 150.192 155.818C150.566 155.088 151.188 154.515 151.945 154.2L197.636 135.217Z" fill="white"/>
<path d="M173.308 177.476L197.285 167.514C198.196 167.134 198.919 166.408 199.295 165.496C199.672 164.584 199.672 163.559 199.294 162.648L198.736 161.304C198.356 160.393 197.631 159.67 196.718 159.293C195.806 158.916 194.782 158.917 193.87 159.295L169.893 169.257C168.982 169.636 168.259 170.362 167.882 171.274C167.505 172.186 167.506 173.211 167.884 174.123L168.442 175.466C168.821 176.377 169.547 177.1 170.459 177.477C171.372 177.854 172.396 177.853 173.308 177.476Z" fill="#90B7D5"/>
<path d="M180.361 194.451L204.337 184.489C205.248 184.109 205.972 183.384 206.348 182.471C206.725 181.559 206.725 180.535 206.347 179.623L205.789 178.279C205.409 177.368 204.683 176.645 203.771 176.268C202.859 175.892 201.834 175.892 200.923 176.27L176.946 186.232C176.035 186.611 175.312 187.337 174.935 188.249C174.558 189.162 174.559 190.186 174.936 191.098L175.495 192.441C175.874 193.352 176.6 194.076 177.512 194.452C178.424 194.829 179.449 194.829 180.361 194.451Z" fill="#90B7D5"/>
<path d="M163.7 153.619C164.059 153.618 164.415 153.549 164.747 153.413L188.907 143.646C189.593 143.367 190.141 142.828 190.43 142.147C190.719 141.465 190.726 140.697 190.449 140.011L188.589 135.408C188.311 134.722 187.772 134.174 187.09 133.885C186.409 133.596 185.64 133.589 184.954 133.867L160.793 143.635C160.107 143.913 159.56 144.452 159.271 145.133C158.982 145.815 158.975 146.583 159.251 147.27L161.112 151.872C161.321 152.387 161.679 152.829 162.14 153.14C162.601 153.451 163.144 153.618 163.7 153.619Z" fill="#CCCCCC"/>
<path d="M214.782 300H324.218C324.426 300 324.624 299.947 324.771 299.854C324.918 299.76 325 299.633 325 299.5C325 299.367 324.918 299.24 324.771 299.146C324.624 299.053 324.426 299 324.218 299H214.782C214.574 299 214.376 299.053 214.229 299.146C214.082 299.24 214 299.367 214 299.5C214 299.633 214.082 299.76 214.229 299.854C214.376 299.947 214.574 300 214.782 300Z" fill="#CCCCCC"/>
</g>
</svg>
