<svg width="20" height="14" viewBox="0 0 20 14" fill="none" xmlns="http://www.w3.org/2000/svg">
<path d="M18.1067 0.235729L5.32623 10.1859L2.2491 4.78094C2.05026 4.43164 1.75426 4.20072 1.42621 4.13897C1.09815 4.07722 0.764912 4.18971 0.499802 4.45168C0.234693 4.71366 0.0594284 5.10367 0.0125632 5.53591C-0.034302 5.96815 0.0510716 6.40722 0.249904 6.75652L3.99839 13.3418C4.18302 13.666 4.45195 13.889 4.75365 13.9683C5.05535 14.0475 5.36863 13.9772 5.63348 13.771L19.3779 3.07002C19.5205 2.96092 19.6453 2.81571 19.7451 2.64276C19.8449 2.4698 19.9178 2.27253 19.9595 2.06231C20.0011 1.8521 20.0108 1.63309 19.9879 1.41792C19.965 1.20276 19.9101 0.995685 19.8262 0.808644C19.7423 0.621603 19.6311 0.458294 19.4991 0.328132C19.367 0.19797 19.2167 0.103529 19.0569 0.0502561C18.897 -0.00301735 18.7307 -0.0140701 18.5676 0.0177342C18.4045 0.0495385 18.2477 0.123571 18.1064 0.235564L18.1067 0.235729Z" fill="#669933"/>
</svg>
