<svg width="390" height="300" viewBox="0 0 390 300" fill="none" xmlns="http://www.w3.org/2000/svg">
<g opacity="0.3">
<path d="M255.923 184.843L340.103 202.586C342.536 203.096 345.071 202.62 347.153 201.263C349.236 199.906 350.694 197.778 351.21 195.347L365.655 126.816C366.165 124.383 365.689 121.847 364.332 119.765C362.974 117.683 360.847 116.224 358.415 115.709L274.235 97.965C271.803 97.4551 269.267 97.931 267.185 99.2883C265.103 100.646 263.644 102.773 263.128 105.205L248.683 173.736C248.173 176.168 248.649 178.704 250.007 180.786C251.364 182.869 253.492 184.327 255.923 184.843ZM358.188 116.788C360.333 117.243 362.211 118.53 363.408 120.367C364.606 122.204 365.026 124.442 364.576 126.588L350.131 195.119C349.676 197.265 348.389 199.142 346.551 200.34C344.714 201.537 342.477 201.957 340.33 201.507L256.151 183.764C254.005 183.309 252.128 182.022 250.93 180.184C249.733 178.347 249.313 176.11 249.762 173.963L264.208 105.432C264.662 103.287 265.95 101.409 267.787 100.212C269.624 99.0143 271.861 98.5944 274.008 99.0443L358.188 116.788Z" fill="#3F3D56"/>
<path d="M279.466 120.562L321.95 129.517C322.322 129.603 322.713 129.545 323.043 129.354C323.374 129.163 323.62 128.854 323.731 128.489C323.782 128.299 323.794 128.1 323.765 127.905C323.737 127.71 323.669 127.523 323.566 127.355C323.463 127.187 323.326 127.042 323.165 126.928C323.004 126.815 322.822 126.735 322.629 126.695L279.382 117.579C277.694 118.531 278.227 120.301 279.466 120.562L279.466 120.562Z" fill="#CCCCCC"/>
<path d="M277.895 128.014L320.379 136.969C320.751 137.055 321.142 136.997 321.472 136.806C321.803 136.615 322.049 136.306 322.16 135.941C322.211 135.751 322.223 135.552 322.194 135.357C322.166 135.162 322.098 134.975 321.995 134.807C321.892 134.639 321.756 134.494 321.595 134.38C321.433 134.267 321.251 134.187 321.058 134.147L277.812 125.031C276.123 125.983 276.657 127.753 277.896 128.014L277.895 128.014Z" fill="#CCCCCC"/>
<path d="M328.669 143.147L341.635 145.88C342.058 145.969 342.5 145.886 342.862 145.65C343.225 145.414 343.479 145.044 343.568 144.62L346.793 129.32C346.882 128.896 346.799 128.455 346.563 128.092C346.327 127.73 345.957 127.476 345.533 127.386L332.567 124.653C332.144 124.565 331.703 124.648 331.34 124.884C330.978 125.12 330.724 125.49 330.634 125.913L327.409 141.214C327.32 141.638 327.403 142.079 327.639 142.441C327.876 142.804 328.246 143.058 328.669 143.148V143.147Z" fill="#CCCCCC"/>
<path d="M274.802 143.298L339.641 156.965C340.013 157.051 340.404 156.993 340.734 156.802C341.065 156.612 341.311 156.302 341.422 155.937C341.473 155.747 341.485 155.548 341.456 155.353C341.428 155.158 341.36 154.971 341.257 154.803C341.154 154.635 341.018 154.49 340.857 154.376C340.695 154.263 340.513 154.183 340.32 154.143L274.718 140.315C273.03 141.267 273.564 143.037 274.802 143.298Z" fill="#CCCCCC"/>
<path d="M273.231 150.752L338.07 164.419C338.442 164.505 338.833 164.447 339.163 164.256C339.494 164.066 339.74 163.757 339.851 163.392C339.902 163.201 339.914 163.002 339.885 162.807C339.857 162.612 339.789 162.425 339.686 162.257C339.583 162.089 339.446 161.944 339.285 161.831C339.124 161.717 338.942 161.638 338.749 161.597L273.147 147.769C271.459 148.721 271.992 150.491 273.231 150.752Z" fill="#CCCCCC"/>
<path d="M271.661 158.201L336.5 171.868C336.872 171.955 337.262 171.897 337.593 171.706C337.924 171.515 338.169 171.206 338.281 170.841C338.332 170.651 338.343 170.452 338.315 170.257C338.287 170.062 338.219 169.875 338.116 169.707C338.013 169.539 337.876 169.394 337.715 169.28C337.554 169.167 337.372 169.087 337.179 169.046L271.577 155.219C269.889 156.17 270.422 157.94 271.661 158.201H271.661Z" fill="#CCCCCC"/>
<path d="M270.09 165.655L334.929 179.322C335.301 179.408 335.691 179.35 336.022 179.159C336.352 178.969 336.598 178.66 336.71 178.295C336.761 178.104 336.772 177.905 336.744 177.71C336.715 177.515 336.648 177.328 336.545 177.16C336.441 176.992 336.305 176.847 336.144 176.734C335.983 176.62 335.8 176.541 335.608 176.5L270.006 162.672C268.317 163.624 268.851 165.394 270.09 165.655Z" fill="#CCCCCC"/>
<path d="M268.52 173.105L333.359 186.772C333.73 186.858 334.121 186.8 334.452 186.609C334.782 186.419 335.028 186.11 335.139 185.745C335.19 185.554 335.202 185.355 335.174 185.16C335.145 184.965 335.077 184.778 334.974 184.61C334.871 184.442 334.735 184.297 334.574 184.184C334.413 184.07 334.23 183.991 334.037 183.95L268.436 170.122C266.747 171.074 267.281 172.844 268.52 173.105Z" fill="#CCCCCC"/>
<path d="M258.177 138.987C258.324 139.255 258.45 139.533 258.554 139.82L285.098 146.407L289.716 141.63L297.836 147.656L290.483 156.908C289.889 157.655 289.069 158.19 288.145 158.431C287.221 158.673 286.244 158.608 285.361 158.247L256.558 146.477C255.611 147.174 254.474 147.566 253.299 147.602C252.124 147.637 250.967 147.313 249.98 146.675C248.993 146.036 248.224 145.111 247.775 144.025C247.327 142.938 247.219 141.741 247.468 140.592C247.716 139.443 248.309 138.397 249.166 137.593C250.024 136.789 251.106 136.265 252.268 136.09C253.431 135.916 254.619 136.1 255.674 136.618C256.73 137.135 257.603 137.962 258.177 138.987L258.177 138.987Z" fill="#FFB8B8"/>
<path d="M348.782 197.604C347.954 197.349 347.193 196.915 346.551 196.333C345.909 195.752 345.403 195.036 345.068 194.238C344.732 193.439 344.576 192.577 344.61 191.711C344.644 190.846 344.867 189.999 345.264 189.229L326.997 138.456L339.683 136.208L353.65 186.823C354.899 187.575 355.829 188.76 356.263 190.152C356.697 191.544 356.605 193.047 356.005 194.376C355.405 195.705 354.338 196.768 353.007 197.363C351.676 197.958 350.172 198.044 348.782 197.604Z" fill="#FFB8B8"/>
<path d="M329.317 147.469L341.843 142.662C342.199 142.525 342.522 142.313 342.789 142.04C343.056 141.768 343.261 141.441 343.39 141.081C343.519 140.722 343.57 140.339 343.538 139.959C343.506 139.579 343.392 139.21 343.205 138.877L336.634 127.227C335.923 125.408 334.521 123.946 332.733 123.159C330.946 122.373 328.92 122.327 327.099 123.032C325.278 123.737 323.811 125.135 323.019 126.92C322.227 128.705 322.175 130.731 322.875 132.554L325.773 145.567C325.856 145.94 326.018 146.29 326.249 146.594C326.48 146.898 326.773 147.149 327.11 147.33C327.446 147.51 327.817 147.616 328.198 147.64C328.579 147.664 328.961 147.606 329.317 147.469V147.469Z" fill="#90B7D5"/>
<path d="M301.046 292.927H294.286L291.069 266.849L301.047 266.85L301.046 292.927Z" fill="#FFB8B8"/>
<path d="M302.771 290.72L289.456 290.72H289.456C288.341 290.72 287.238 290.939 286.208 291.366C285.179 291.792 284.244 292.417 283.456 293.205C282.668 293.993 282.043 294.928 281.616 295.958C281.19 296.987 280.97 298.09 280.97 299.205V299.481L302.77 299.481L302.771 290.72Z" fill="#2F2E41"/>
<path d="M339.098 292.927H332.337L329.12 266.849L339.099 266.85L339.098 292.927Z" fill="#FFB8B8"/>
<path d="M340.822 290.72L327.508 290.72H327.507C326.393 290.72 325.289 290.939 324.26 291.366C323.231 291.792 322.295 292.417 321.507 293.205C320.719 293.993 320.094 294.928 319.668 295.958C319.241 296.987 319.022 298.09 319.022 299.205V299.481L340.822 299.481L340.822 290.72Z" fill="#2F2E41"/>
<path d="M332.01 282.431H340.566C340.902 282.431 341.234 282.363 341.543 282.231C341.851 282.099 342.13 281.905 342.362 281.662C342.593 281.419 342.773 281.132 342.891 280.817C343.008 280.503 343.06 280.167 343.045 279.832L338.981 192.517L338.724 192.51L297.409 191.432L289.324 278.798C289.293 279.125 289.327 279.456 289.425 279.77C289.523 280.084 289.682 280.376 289.893 280.628C290.105 280.88 290.364 281.087 290.657 281.238C290.949 281.389 291.269 281.48 291.597 281.506L301.207 282.275C301.81 282.323 302.411 282.149 302.895 281.785C303.379 281.421 303.714 280.893 303.835 280.299L316.128 218.107C316.161 217.918 316.262 217.747 316.41 217.626C316.559 217.504 316.746 217.44 316.938 217.445H316.941C317.134 217.441 317.322 217.506 317.47 217.629C317.618 217.751 317.718 217.923 317.75 218.113L329.575 280.429C329.687 280.993 329.991 281.5 330.435 281.865C330.879 282.23 331.435 282.431 332.01 282.431Z" fill="#2F2E41"/>
<path d="M316.337 114.642C308.857 114.642 302.793 108.578 302.793 101.098C302.793 93.617 308.857 87.5529 316.337 87.5529C323.818 87.5529 329.882 93.617 329.882 101.098C329.882 108.578 323.818 114.642 316.337 114.642Z" fill="#FFB8B8"/>
<path d="M320.879 202.749C327.335 202.749 333.965 201.052 339.462 196.035C339.755 195.77 339.981 195.439 340.122 195.07C340.262 194.701 340.314 194.305 340.273 193.912C339.684 188.625 336.83 161.33 338.438 143.097C338.751 139.692 338.269 136.26 337.029 133.072C335.789 129.885 333.826 127.029 331.293 124.731C328.805 122.438 325.818 120.754 322.567 119.813C319.317 118.872 315.893 118.699 312.564 119.308H312.564C312.395 119.338 312.227 119.37 312.058 119.402C301.214 121.501 293.679 131.536 294.532 142.746C295.776 159.103 296.891 181.227 295.14 193.74C295.068 194.251 295.157 194.773 295.396 195.232C295.635 195.69 296.011 196.063 296.472 196.297C300.456 198.31 310.438 202.749 320.879 202.749Z" fill="#90B7D5"/>
<path d="M303.205 148.444C303.523 148.232 303.791 147.955 303.992 147.63C304.193 147.305 304.321 146.941 304.368 146.562L306.018 133.333C306.542 131.451 306.299 129.439 305.341 127.737C304.383 126.035 302.79 124.782 300.91 124.253C299.03 123.724 297.017 123.962 295.312 124.914C293.607 125.867 292.35 127.457 291.816 129.336L286.38 141.557C286.225 141.906 286.147 142.284 286.151 142.665C286.155 143.047 286.242 143.423 286.405 143.769C286.567 144.114 286.803 144.42 287.094 144.666C287.386 144.913 287.727 145.093 288.095 145.195L301.02 148.792C301.388 148.894 301.773 148.916 302.15 148.856C302.527 148.796 302.887 148.655 303.205 148.444Z" fill="#90B7D5"/>
<path d="M321.066 114.451C322.348 114.475 323.622 114.244 324.814 113.773C325.339 113.571 325.883 113.404 326.407 113.202C331.032 111.415 334.079 106.49 334.188 101.533C334.297 96.5758 331.73 91.7646 327.918 88.5939C324.106 85.4232 319.169 83.7954 314.225 83.4189C308.9 83.0134 302.903 84.3639 299.928 88.7988C299.135 89.9793 298.582 91.4116 299.051 92.837C299.191 93.2671 299.443 93.6527 299.779 93.9553C301.108 95.1377 302.433 94.2487 303.787 94.1701C305.65 94.0622 307.322 95.5694 307.923 97.3351C308.524 99.1007 308.26 101.045 307.774 102.846C307.405 103.929 307.171 105.055 307.08 106.196C307.041 106.769 307.149 107.341 307.393 107.86C307.637 108.38 308.01 108.828 308.476 109.162C309.64 109.866 311.168 109.459 312.332 108.756C313.496 108.054 314.502 107.078 315.76 106.561C317.017 106.044 318.707 106.159 319.439 107.305C319.672 107.722 319.829 108.176 319.904 108.648C320.56 111.637 320.409 111.461 321.066 114.451V114.451Z" fill="#2F2E41"/>
<path d="M133.456 95.9559H219.485C221.971 95.9531 224.354 94.9645 226.111 93.2069C227.869 91.4494 228.858 89.0664 228.86 86.5809V16.5441C228.858 14.0586 227.869 11.6756 226.111 9.91808C224.354 8.16053 221.971 7.17191 219.485 7.16911H133.456C130.97 7.17191 128.587 8.16053 126.83 9.91808C125.072 11.6756 124.084 14.0586 124.081 16.5441V86.5809C124.084 89.0664 125.072 91.4494 126.83 93.2069C128.587 94.9645 130.97 95.9531 133.456 95.9559ZM219.485 8.27205C221.678 8.27454 223.781 9.14685 225.332 10.6976C226.883 12.2484 227.755 14.351 227.757 16.5441V86.5809C227.755 88.774 226.883 90.8766 225.332 92.4274C223.781 93.9781 221.678 94.8505 219.485 94.8529H133.456C131.263 94.8505 129.16 93.9781 127.609 92.4274C126.059 90.8766 125.186 88.774 125.184 86.5809V16.5441C125.186 14.351 126.059 12.2484 127.609 10.6976C129.16 9.14685 131.263 8.27454 133.456 8.27205H219.485Z" fill="#3F3D56"/>
<path d="M144.156 27.9997H208.721C209.288 28.0077 209.839 27.8656 210.261 27.6022C210.684 27.3387 210.947 26.9735 210.997 26.5805C211.013 26.377 210.969 26.1735 210.867 25.9822C210.766 25.791 210.61 25.6161 210.409 25.4682C210.207 25.3203 209.964 25.2025 209.695 25.122C209.426 25.0415 209.136 25 208.843 25H143.12C140.955 26.3228 142.275 27.9997 144.157 27.9997L144.156 27.9997Z" fill="#CCCCCC"/>
<path d="M144.156 35.9997H208.721C209.288 36.0077 209.839 35.8656 210.261 35.6022C210.684 35.3387 210.947 34.9735 210.997 34.5805C211.013 34.377 210.969 34.1735 210.867 33.9822C210.766 33.791 210.61 33.6161 210.409 33.4682C210.207 33.3203 209.964 33.2025 209.695 33.122C209.426 33.0415 209.136 33 208.843 33H143.12C140.955 34.3228 142.275 35.9997 144.157 35.9997L144.156 35.9997Z" fill="#CCCCCC"/>
<path d="M143.361 51.4103H209.624C210.006 51.418 210.376 51.2806 210.66 51.0258C210.944 50.771 211.121 50.4178 211.155 50.0377C211.166 49.8409 211.136 49.644 211.068 49.4591C211 49.2741 210.895 49.1049 210.759 48.9619C210.624 48.8188 210.461 48.7049 210.28 48.6271C210.098 48.5492 209.903 48.5091 209.706 48.509H142.663C141.207 49.7885 142.095 51.4103 143.361 51.4103V51.4103Z" fill="#CCCCCC"/>
<path d="M143.361 59.0283H209.624C210.006 59.0361 210.376 58.8986 210.66 58.6438C210.944 58.389 211.121 58.0358 211.155 57.6557C211.166 57.4589 211.136 57.262 211.068 57.077C211 56.8921 210.895 56.7229 210.759 56.5799C210.624 56.4368 210.461 56.3229 210.28 56.245C210.098 56.1672 209.903 56.127 209.706 56.127H142.663C141.207 57.4064 142.095 59.0283 143.361 59.0283V59.0283Z" fill="#CCCCCC"/>
<path d="M143.361 66.6414H209.624C210.006 66.6491 210.376 66.5117 210.66 66.2569C210.944 66.0021 211.121 65.6489 211.155 65.2687C211.166 65.0719 211.136 64.8751 211.068 64.6901C211 64.5051 210.895 64.336 210.759 64.1929C210.624 64.0499 210.461 63.936 210.28 63.8581C210.098 63.7802 209.903 63.7401 209.706 63.7401H142.663C141.207 65.0195 142.095 66.6414 143.361 66.6414V66.6414Z" fill="#CCCCCC"/>
<path d="M143.361 74.2588H209.624C210.006 74.2666 210.376 74.1292 210.66 73.8744C210.944 73.6196 211.121 73.2664 211.155 72.8862C211.166 72.6894 211.136 72.4926 211.068 72.3076C211 72.1226 210.895 71.9535 210.759 71.8104C210.624 71.6674 210.461 71.5535 210.28 71.4756C210.098 71.3977 209.903 71.3576 209.706 71.3576H142.663C141.207 72.637 142.095 74.2589 143.361 74.2589V74.2588Z" fill="#CCCCCC"/>
<path d="M143.361 81.8724H209.624C210.006 81.8802 210.376 81.7427 210.66 81.4879C210.944 81.2331 211.121 80.88 211.155 80.4998C211.166 80.303 211.136 80.1061 211.068 79.9212C211 79.7362 210.895 79.567 210.759 79.424C210.624 79.2809 210.461 79.167 210.28 79.0892C210.098 79.0113 209.903 78.9711 209.706 78.9711H142.663C141.207 80.2505 142.095 81.8724 143.361 81.8724Z" fill="#CCCCCC"/>
<path d="M152.206 0C151.475 0.000836334 150.774 0.291611 150.257 0.808534C149.74 1.32546 149.449 2.02631 149.449 2.75735V11.5809C149.449 12.3119 149.74 13.0128 150.257 13.5297C150.774 14.0466 151.475 14.3374 152.206 14.3382H200.735C201.466 14.3374 202.167 14.0466 202.684 13.5297C203.201 13.0128 203.492 12.3119 203.493 11.5809V2.75735C203.492 2.02631 203.201 1.32546 202.684 0.808534C202.167 0.291611 201.466 0.000836334 200.735 0" fill="#90B7D5"/>
<path d="M9.375 182.537H95.4044C97.89 182.534 100.273 181.545 102.03 179.788C103.788 178.03 104.777 175.647 104.779 173.162V103.125C104.777 100.639 103.788 98.2565 102.03 96.499C100.273 94.7414 97.89 93.7528 95.4044 93.75H9.375C6.88945 93.7528 4.50652 94.7414 2.74897 96.499C0.991425 98.2565 0.00279236 100.639 0 103.125V173.162C0.00279236 175.647 0.991425 178.03 2.74897 179.788C4.50652 181.545 6.88945 182.534 9.375 182.537ZM95.4044 94.8529C97.5975 94.8554 99.7001 95.7277 101.251 97.2785C102.802 98.8293 103.674 100.932 103.676 103.125V173.162C103.674 175.355 102.802 177.457 101.251 179.008C99.7001 180.559 97.5975 181.431 95.4044 181.434H9.375C7.18188 181.431 5.07929 180.559 3.52851 179.008C1.97774 177.457 1.10542 175.355 1.10294 173.162V103.125C1.10542 100.932 1.97774 98.8293 3.52851 97.2785C5.07929 95.7277 7.18188 94.8554 9.375 94.8529H95.4044Z" fill="#3F3D56"/>
<path d="M19.1534 114.782H62.5714C62.9529 114.79 63.3232 114.652 63.6074 114.398C63.8915 114.143 64.0683 113.79 64.102 113.409C64.1126 113.213 64.083 113.016 64.015 112.831C63.947 112.646 63.842 112.477 63.7064 112.334C63.5709 112.191 63.4076 112.077 63.2266 111.999C63.0455 111.921 62.8505 111.881 62.6534 111.881H18.4567C17.0007 113.16 17.8879 114.782 19.154 114.782H19.1534Z" fill="#3F3D56"/>
<path d="M19.1534 122.398H62.5714C62.9529 122.406 63.3232 122.268 63.6074 122.013C63.8915 121.759 64.0683 121.405 64.102 121.025C64.1126 120.828 64.083 120.631 64.015 120.447C63.947 120.262 63.842 120.092 63.7064 119.949C63.5709 119.806 63.4076 119.692 63.2266 119.615C63.0455 119.537 62.8505 119.497 62.6534 119.497H18.4567C17.0007 120.776 17.8879 122.398 19.154 122.398H19.1534Z" fill="#3F3D56"/>
<path d="M71.9573 126.734H85.208C85.6407 126.734 86.0555 126.562 86.3614 126.256C86.6673 125.95 86.8394 125.535 86.8398 125.102V109.465C86.8394 109.033 86.6673 108.618 86.3614 108.312C86.0555 108.006 85.6407 107.834 85.208 107.833H71.9573C71.5247 107.834 71.11 108.006 70.8041 108.312C70.4982 108.618 70.3261 109.033 70.3255 109.465V125.102C70.3259 125.535 70.498 125.95 70.8039 126.256C71.1098 126.562 71.5247 126.734 71.9573 126.734Z" fill="#CCCCCC"/>
<path d="M19.2797 137.991H85.5434C85.925 137.999 86.2953 137.862 86.5794 137.607C86.8636 137.352 87.0404 136.999 87.0741 136.619C87.0847 136.422 87.055 136.225 86.987 136.04C86.919 135.855 86.814 135.686 86.6785 135.543C86.5429 135.4 86.3796 135.286 86.1986 135.208C86.0176 135.13 85.8226 135.09 85.6255 135.09H18.5824C17.1264 136.369 18.0136 137.991 19.2797 137.991V137.991Z" fill="#CCCCCC"/>
<path d="M19.2797 145.609H85.5434C85.925 145.617 86.2953 145.479 86.5794 145.225C86.8636 144.97 87.0404 144.617 87.0741 144.237C87.0847 144.04 87.055 143.843 86.987 143.658C86.919 143.473 86.814 143.304 86.6785 143.161C86.5429 143.018 86.3796 142.904 86.1986 142.826C86.0176 142.748 85.8226 142.708 85.6255 142.708H18.5824C17.1264 143.987 18.0136 145.609 19.2797 145.609V145.609Z" fill="#CCCCCC"/>
<path d="M19.2797 153.222H85.5434C85.925 153.23 86.2953 153.093 86.5794 152.838C86.8636 152.583 87.0404 152.23 87.0741 151.85C87.0847 151.653 87.055 151.456 86.987 151.271C86.919 151.086 86.814 150.917 86.6785 150.774C86.5429 150.631 86.3796 150.517 86.1986 150.439C86.0176 150.361 85.8226 150.321 85.6255 150.321H18.5824C17.1264 151.6 18.0136 153.222 19.2797 153.222V153.222Z" fill="#CCCCCC"/>
<path d="M58.2613 161H85.6674C85.9991 161.008 86.3211 160.866 86.5681 160.602C86.8151 160.339 86.9689 159.974 86.9982 159.58C87.0074 159.377 86.9816 159.173 86.9225 158.982C86.8634 158.791 86.7721 158.616 86.6542 158.468C86.5364 158.32 86.3944 158.203 86.237 158.122C86.0796 158.042 85.91 158 85.7387 158H57.655C56.3891 159.323 57.1605 161 58.2613 161V161Z" fill="#CCCCCC"/>
<path d="M19.2613 161H46.6674C46.9991 161.008 47.3211 160.866 47.5681 160.602C47.8151 160.339 47.9689 159.974 47.9982 159.58C48.0074 159.377 47.9816 159.173 47.9225 158.982C47.8634 158.791 47.7721 158.616 47.6542 158.468C47.5364 158.32 47.3944 158.203 47.237 158.122C47.0796 158.042 46.91 158 46.7387 158H18.655C17.3891 159.323 18.1605 161 19.2613 161V161Z" fill="#CCCCCC"/>
<path d="M58.2613 169H85.6674C85.9991 169.008 86.3211 168.866 86.5681 168.602C86.8151 168.339 86.9689 167.974 86.9982 167.58C87.0074 167.377 86.9816 167.173 86.9225 166.982C86.8634 166.791 86.7721 166.616 86.6542 166.468C86.5364 166.32 86.3944 166.203 86.237 166.122C86.0796 166.042 85.91 166 85.7387 166H57.655C56.3891 167.323 57.1605 169 58.2613 169Z" fill="#CCCCCC"/>
<path d="M19.2613 169H46.6674C46.9991 169.008 47.3211 168.866 47.5681 168.602C47.8151 168.339 47.9689 167.974 47.9982 167.58C48.0074 167.377 47.9816 167.173 47.9225 166.982C47.8634 166.791 47.7721 166.616 47.6542 166.468C47.5364 166.32 47.3944 166.203 47.237 166.122C47.0796 166.042 46.91 166 46.7387 166H18.655C17.3891 167.323 18.1605 169 19.2613 169Z" fill="#CCCCCC"/>
<path d="M28.1251 100.919H76.6545C77.3856 100.918 78.0864 100.627 78.6033 100.111C79.1203 99.5936 79.411 98.8928 79.4119 98.1617V89.3382C79.411 88.6072 79.1203 87.9063 78.6033 87.3894C78.0864 86.8725 77.3856 86.5817 76.6545 86.5809H28.1251C27.3941 86.5817 26.6932 86.8725 26.1763 87.3894C25.6593 87.9063 25.3686 88.6072 25.3677 89.3382V98.1617C25.3686 98.8928 25.6593 99.5936 26.1763 100.111C26.6932 100.627 27.3941 100.918 28.1251 100.919Z" fill="#90B7D5"/>
<path d="M195.509 300H389.491C389.626 300 389.755 299.947 389.851 299.854C389.946 299.76 390 299.633 390 299.5C390 299.367 389.946 299.24 389.851 299.146C389.755 299.053 389.626 299 389.491 299H195.509C195.374 299 195.245 299.053 195.149 299.146C195.054 299.24 195 299.367 195 299.5C195 299.633 195.054 299.76 195.149 299.854C195.245 299.947 195.374 300 195.509 300Z" fill="#3F3D56"/>
</g>
</svg>
