<svg width="388" height="282" viewBox="0 0 388 282" fill="none" xmlns="http://www.w3.org/2000/svg">
<g opacity="0.3">
<path d="M278.621 177.017C278.556 176.289 278.651 175.556 278.9 174.87C279.148 174.183 279.545 173.559 280.061 173.042C280.577 172.525 281.2 172.127 281.886 171.877C282.573 171.626 283.305 171.53 284.033 171.593L289.311 161.467L296.247 163.174L288.593 177.369C288.405 178.585 287.777 179.689 286.83 180.473C285.882 181.257 284.679 181.666 283.45 181.622C282.221 181.579 281.051 181.086 280.16 180.237C279.27 179.389 278.722 178.243 278.621 177.017H278.621Z" fill="#FFB7B7"/>
<path d="M310.125 275.666L304.272 275.665L301.488 253.091L310.126 253.091L310.125 275.666Z" fill="#FFB7B7"/>
<path d="M311.617 281.339L292.746 281.338V281.099C292.746 279.151 293.52 277.283 294.898 275.906C296.275 274.528 298.143 273.754 300.091 273.754H300.092L311.618 273.755L311.617 281.339Z" fill="#2F2E41"/>
<path d="M357.197 271.294L351.55 272.833L342.924 251.787L351.258 249.514L357.197 271.294Z" fill="#FFB7B7"/>
<path d="M360.129 276.374L341.923 281.339L341.86 281.108C341.347 279.229 341.602 277.223 342.569 275.532C343.535 273.84 345.134 272.602 347.014 272.089L347.014 272.089L358.134 269.057L360.129 276.374Z" fill="#2F2E41"/>
<path d="M299.44 178.15L296.521 222.484L302.792 272.223L313.064 269.088L313.497 224.646L321.715 199.019L346.044 267.466L357.181 263.357L347.99 218.915L342.8 177.177L299.44 178.15Z" fill="#2F2E41"/>
<path d="M327.823 100.301L310.525 102.851L304.293 109.015L302.358 131.159L303.56 150.774L298.55 185.364C298.55 185.364 311.148 178.37 320.911 187.125C330.674 195.879 344.335 188.672 344.616 182.848L327.823 100.301Z" fill="#CBCBCB"/>
<path d="M319.039 128.074L319.039 128.049L327.632 100.038L327.743 100.031C328.355 99.9909 342.762 99.1418 345.985 106.256L346 106.29L345.021 135.399L346.369 180.988L319.723 186.759L319.529 186.801L319.039 128.074Z" fill="#2F2E41"/>
<path d="M309.516 126.137L311.092 102.392C299.881 103.089 300.05 111.038 300.063 111.385L299.94 146.903L297.695 184.902L305.859 184.29L309.516 126.137Z" fill="#2F2E41"/>
<path d="M284.235 169.345L294.189 146.244L301.136 133.486L304.763 156.5L292.17 175.39L284.235 169.345Z" fill="#2F2E41"/>
<path d="M325.371 160.845C325.524 160.13 325.831 159.458 326.271 158.875C326.712 158.292 327.274 157.813 327.92 157.471C328.566 157.129 329.278 156.933 330.008 156.897C330.738 156.86 331.466 156.984 332.143 157.259L340.173 149.141L346.297 152.818L334.796 164.123C334.257 165.229 333.332 166.099 332.195 166.568C331.059 167.038 329.789 167.074 328.627 166.67C327.466 166.266 326.493 165.45 325.893 164.376C325.292 163.302 325.107 162.046 325.371 160.845Z" fill="#FFB7B7"/>
<path d="M332.124 154.296L348.497 136.334L337.659 120.869L338.775 113.308L345.162 105.418L345.287 105.579C345.968 106.46 361.968 127.247 362.427 135.116C362.888 143.015 339.89 162.994 338.911 163.84L338.775 163.958L332.124 154.296Z" fill="#2F2E41"/>
<path d="M317.842 98.3551C324.269 98.3551 329.479 93.1451 329.479 86.7181C329.479 80.2911 324.269 75.0811 317.842 75.0811C311.415 75.0811 306.205 80.2911 306.205 86.7181C306.205 93.1451 311.415 98.3551 317.842 98.3551Z" fill="#FFB7B7"/>
<path d="M328.786 77.4149L329.35 76.2794L326.512 74.869C326.512 74.869 323.38 69.7736 317.714 71.2055C312.047 72.6374 309.497 73.4944 309.497 73.4944L306.666 74.9191L308.087 76.3331L305.538 77.1901L307.241 78.0363L305.259 79.1754L306.326 85.0146C306.326 85.0146 308.098 80.5858 311.504 82.2783C314.911 83.9707 321.141 81.4034 321.141 81.4034L326.555 91.8797C326.555 91.8797 327.671 88.2072 329.663 89.1865C329.663 89.1865 334.749 81.0855 328.786 77.4149Z" fill="#2F2E41"/>
<path d="M183 159.727L65.6446 192L27 52.273L144.355 20L183 159.727Z" fill="white"/>
<path d="M183 159.727L65.6446 192L27 52.273L144.355 20L183 159.727ZM67.1439 189.366L180.359 158.232L142.856 22.6338L29.6413 53.7681L67.1439 189.366Z" fill="#F1F1F1"/>
<path d="M145.465 92.5546L63.5581 115.143L64.431 118.308L146.338 95.7197L145.465 92.5546Z" fill="#F1F1F1"/>
<path d="M134.097 55.5093L52.1901 78.098L53.063 81.2632L134.97 58.6744L134.097 55.5093Z" fill="#F1F1F1"/>
<path d="M147.741 100.807L65.8342 123.396L66.7071 126.561L148.614 103.972L147.741 100.807Z" fill="#F1F1F1"/>
<path d="M136.373 63.7618L54.4661 86.3505L55.339 89.5157L137.246 66.9269L136.373 63.7618Z" fill="#F1F1F1"/>
<path d="M150.017 109.06L68.1101 131.648L68.983 134.814L150.89 112.225L150.017 109.06Z" fill="#F1F1F1"/>
<path d="M154.023 123.584L72.1158 146.173L72.9888 149.338L154.896 126.75L154.023 123.584Z" fill="#F1F1F1"/>
<path d="M156.299 131.837L74.3917 154.426L75.2646 157.591L157.171 135.002L156.299 131.837Z" fill="#F1F1F1"/>
<path d="M158.575 140.089L76.6677 162.678L77.5406 165.843L159.447 143.255L158.575 140.089Z" fill="#F1F1F1"/>
<path d="M221 191H99V47H221V191Z" fill="white"/>
<path d="M221 191H99V47H221V191ZM101.152 188.872H218.848V49.1276H101.152V188.872Z" fill="#E5E5E5"/>
<path d="M198 109H128V112H198V109Z" fill="#90B7D5"/>
<path d="M198 118H128V120H198V118Z" fill="#90B7D5"/>
<path d="M198 126H128V129H198V126Z" fill="#90B7D5"/>
<path d="M123.5 113C124.881 113 126 112.105 126 111C126 109.895 124.881 109 123.5 109C122.119 109 121 109.895 121 111C121 112.105 122.119 113 123.5 113Z" fill="#90B7D5"/>
<path d="M198 72H128V76H198V72Z" fill="#E5E5E5"/>
<path d="M198 81H128V84H198V81Z" fill="#E5E5E5"/>
<path d="M198 89H128V93H198V89Z" fill="#E5E5E5"/>
<path d="M123.5 76C124.881 76 126 75.1046 126 74C126 72.8954 124.881 72 123.5 72C122.119 72 121 72.8954 121 74C121 75.1046 122.119 76 123.5 76Z" fill="#E5E5E5"/>
<path d="M198 146H128V149H198V146Z" fill="#E5E5E5"/>
<path d="M198 154H128V158H198V154Z" fill="#E5E5E5"/>
<path d="M198 163H128V166H198V163Z" fill="#E5E5E5"/>
<path d="M123.5 150C124.881 150 126 148.881 126 147.5C126 146.119 124.881 145 123.5 145C122.119 145 121 146.119 121 147.5C121 148.881 122.119 150 123.5 150Z" fill="#E5E5E5"/>
<path d="M245.189 210.271C265.911 210.271 282.71 193.473 282.71 172.751C282.71 152.029 265.911 135.23 245.189 135.23C224.467 135.23 207.668 152.029 207.668 172.751C207.668 193.473 224.467 210.271 245.189 210.271Z" fill="#90B7D5"/>
<path d="M255.584 170.357V163.178C255.585 161.812 255.317 160.46 254.795 159.198C254.273 157.936 253.508 156.789 252.542 155.823C251.577 154.856 250.431 154.09 249.169 153.567C247.907 153.044 246.555 152.775 245.189 152.775C243.823 152.775 242.471 153.044 241.209 153.567C239.947 154.09 238.801 154.856 237.836 155.823C236.87 156.789 236.105 157.936 235.583 159.198C235.061 160.46 234.793 161.812 234.794 163.178V170.357C233.404 170.42 232.092 171.016 231.131 172.021C230.169 173.026 229.632 174.363 229.632 175.754V192.719H260.746V175.754C260.746 174.363 260.209 173.026 259.247 172.021C258.286 171.016 256.974 170.42 255.584 170.357ZM245.189 156.443C246.975 156.445 248.686 157.155 249.949 158.418C251.212 159.681 251.922 161.392 251.924 163.178V170.345H238.454V163.178C238.456 161.392 239.166 159.681 240.429 158.418C241.691 157.155 243.403 156.445 245.189 156.443Z" fill="white"/>
<path d="M247.986 178.735C247.986 178.253 247.861 177.779 247.624 177.359C247.387 176.939 247.045 176.588 246.632 176.339C246.219 176.09 245.749 175.952 245.267 175.939C244.785 175.925 244.308 176.037 243.881 176.262C243.455 176.487 243.094 176.819 242.834 177.225C242.574 177.631 242.423 178.098 242.396 178.579C242.37 179.061 242.468 179.541 242.681 179.973C242.895 180.406 243.217 180.775 243.616 181.047V187.126H246.762V181.047C247.139 180.79 247.448 180.446 247.661 180.043C247.874 179.64 247.986 179.191 247.986 178.735Z" fill="#90B7D5"/>
<path d="M387.582 282H228.293C228.182 282 228.076 281.908 227.997 281.744C227.919 281.58 227.875 281.357 227.875 281.125C227.875 280.893 227.919 280.67 227.997 280.506C228.076 280.342 228.182 280.25 228.293 280.25H387.582C387.693 280.25 387.799 280.342 387.878 280.506C387.956 280.67 388 280.893 388 281.125C388 281.357 387.956 281.58 387.878 281.744C387.799 281.908 387.693 282 387.582 282Z" fill="#CBCBCB"/>
</g>
</svg>
