<svg width="300" height="130" viewBox="0 0 300 130" fill="none" xmlns="http://www.w3.org/2000/svg">
<rect width="300" height="130" rx="30" fill="white"/>
<path d="M96.2784 65.2291H47.507C30.7169 63.8619 29.9174 38.5694 50.7051 39.253C58.7004 23.5307 85.8844 23.5307 90.6816 44.0381C108.271 44.0381 109.071 63.1783 96.2784 65.2291Z" fill="#DAE7F1"/>
<path d="M45.4444 96.5909C45.4444 98.7972 43.5993 100.667 41.2222 100.667C38.8452 100.667 37 98.7972 37 96.5909C37 94.3845 38.8452 92.5151 41.2222 92.5151C43.5993 92.5151 45.4444 94.3845 45.4444 96.5909Z" stroke="#7F9CB3" stroke-width="4"/>
<path d="M75 95.1018C75 97.3081 73.1548 99.1776 70.7778 99.1776C68.4007 99.1776 66.5555 97.3081 66.5555 95.1018C66.5555 92.8954 68.4007 91.026 70.7778 91.026C73.1548 91.026 75 92.8954 75 95.1018Z" stroke="#7F9CB3" stroke-width="4"/>
<path d="M103 96.5909C103 98.7972 101.155 100.667 98.7778 100.667C96.4007 100.667 94.5555 98.7972 94.5555 96.5909C94.5555 94.3845 96.4007 92.5151 98.7778 92.5151C101.155 92.5151 103 94.3845 103 96.5909Z" stroke="#7F9CB3" stroke-width="4"/>
<path d="M46.8218 89.7695L55.0659 82.9197L55.0659 69.7711" stroke="#7F9CB3" stroke-width="4"/>
<path d="M93.1782 89.7695L84.9342 82.9197L84.9342 69.7711" stroke="#7F9CB3" stroke-width="4"/>
<line x1="71.2222" y1="70.5305" x2="71.2222" y2="85.72" stroke="#7F9CB3" stroke-width="4"/>
<path d="M161.185 56.564C162.977 56.564 164.573 56.942 165.973 57.698C167.373 58.426 168.479 59.532 169.291 61.016C170.103 62.5 170.509 64.306 170.509 66.434V80H166.729V66.98C166.729 64.684 166.155 62.934 165.007 61.73C163.887 60.498 162.361 59.882 160.429 59.882C158.441 59.882 156.859 60.526 155.683 61.814C154.507 63.074 153.919 64.908 153.919 67.316V80H150.139V66.98C150.139 64.684 149.565 62.934 148.417 61.73C147.297 60.498 145.771 59.882 143.839 59.882C141.851 59.882 140.269 60.526 139.093 61.814C137.917 63.074 137.329 64.908 137.329 67.316V80H133.507V56.984H137.329V60.302C138.085 59.098 139.093 58.174 140.353 57.53C141.641 56.886 143.055 56.564 144.595 56.564C146.527 56.564 148.235 56.998 149.719 57.866C151.203 58.734 152.309 60.008 153.037 61.688C153.681 60.064 154.745 58.804 156.229 57.908C157.713 57.012 159.365 56.564 161.185 56.564ZM197.779 67.61C197.779 68.338 197.737 69.108 197.653 69.92H179.257C179.397 72.188 180.167 73.966 181.567 75.254C182.995 76.514 184.717 77.144 186.733 77.144C188.385 77.144 189.757 76.766 190.849 76.01C191.969 75.226 192.753 74.19 193.201 72.902H197.317C196.701 75.114 195.469 76.92 193.621 78.32C191.773 79.692 189.477 80.378 186.733 80.378C184.549 80.378 182.589 79.888 180.853 78.908C179.145 77.928 177.801 76.542 176.821 74.75C175.841 72.93 175.351 70.83 175.351 68.45C175.351 66.07 175.827 63.984 176.779 62.192C177.731 60.4 179.061 59.028 180.769 58.076C182.505 57.096 184.493 56.606 186.733 56.606C188.917 56.606 190.849 57.082 192.529 58.034C194.209 58.986 195.497 60.302 196.393 61.982C197.317 63.634 197.779 65.51 197.779 67.61ZM193.831 66.812C193.831 65.356 193.509 64.11 192.865 63.074C192.221 62.01 191.339 61.212 190.219 60.68C189.127 60.12 187.909 59.84 186.565 59.84C184.633 59.84 182.981 60.456 181.609 61.688C180.265 62.92 179.495 64.628 179.299 66.812H193.831ZM230.502 56.564C232.294 56.564 233.89 56.942 235.29 57.698C236.69 58.426 237.796 59.532 238.608 61.016C239.42 62.5 239.826 64.306 239.826 66.434V80H236.046V66.98C236.046 64.684 235.472 62.934 234.324 61.73C233.204 60.498 231.678 59.882 229.746 59.882C227.758 59.882 226.176 60.526 225 61.814C223.824 63.074 223.236 64.908 223.236 67.316V80H219.456V66.98C219.456 64.684 218.882 62.934 217.734 61.73C216.614 60.498 215.088 59.882 213.156 59.882C211.168 59.882 209.586 60.526 208.41 61.814C207.234 63.074 206.646 64.908 206.646 67.316V80H202.824V56.984H206.646V60.302C207.402 59.098 208.41 58.174 209.67 57.53C210.958 56.886 212.372 56.564 213.912 56.564C215.844 56.564 217.552 56.998 219.036 57.866C220.52 58.734 221.626 60.008 222.354 61.688C222.998 60.064 224.062 58.804 225.546 57.908C227.03 57.012 228.682 56.564 230.502 56.564ZM256.133 80.378C253.977 80.378 252.017 79.888 250.253 78.908C248.517 77.928 247.145 76.542 246.137 74.75C245.157 72.93 244.667 70.83 244.667 68.45C244.667 66.098 245.171 64.026 246.179 62.234C247.215 60.414 248.615 59.028 250.379 58.076C252.143 57.096 254.117 56.606 256.301 56.606C258.485 56.606 260.459 57.096 262.223 58.076C263.987 59.028 265.373 60.4 266.381 62.192C267.417 63.984 267.935 66.07 267.935 68.45C267.935 70.83 267.403 72.93 266.339 74.75C265.303 76.542 263.889 77.928 262.097 78.908C260.305 79.888 258.317 80.378 256.133 80.378ZM256.133 77.018C257.505 77.018 258.793 76.696 259.997 76.052C261.201 75.408 262.167 74.442 262.895 73.154C263.651 71.866 264.029 70.298 264.029 68.45C264.029 66.602 263.665 65.034 262.937 63.746C262.209 62.458 261.257 61.506 260.081 60.89C258.905 60.246 257.631 59.924 256.259 59.924C254.859 59.924 253.571 60.246 252.395 60.89C251.247 61.506 250.323 62.458 249.623 63.746C248.923 65.034 248.573 66.602 248.573 68.45C248.573 70.326 248.909 71.908 249.581 73.196C250.281 74.484 251.205 75.45 252.353 76.094C253.501 76.71 254.761 77.018 256.133 77.018Z" fill="#7F9CB3"/>
</svg>
