<svg width="90" height="80" viewBox="0 0 90 80" fill="none" xmlns="http://www.w3.org/2000/svg">
<rect width="90" height="80" rx="20" fill="#FBFDFE"/>
<path d="M60.0162 40.2738H32.1469C22.5525 39.4925 22.0957 25.0397 33.9744 25.4303C38.5431 16.4461 54.0768 16.4461 56.8181 28.1646C66.8693 28.1646 67.3262 39.1019 60.0162 40.2738Z" fill="#DAE7F1"/>
<path d="M31.1111 58.1948C31.1111 59.5376 29.9895 60.6667 28.5556 60.6667C27.1216 60.6667 26 59.5376 26 58.1948C26 56.8519 27.1216 55.7229 28.5556 55.7229C29.9895 55.7229 31.1111 56.8519 31.1111 58.1948Z" stroke="#7F9CB3" stroke-width="2"/>
<path d="M48 57.3439C48 58.6867 46.8784 59.8157 45.4444 59.8157C44.0104 59.8157 42.8889 58.6867 42.8889 57.3439C42.8889 56.001 44.0104 54.872 45.4444 54.872C46.8784 54.872 48 56.001 48 57.3439Z" stroke="#7F9CB3" stroke-width="2"/>
<path d="M64 58.1948C64 59.5376 62.8785 60.6667 61.4445 60.6667C60.0105 60.6667 58.8889 59.5376 58.8889 58.1948C58.8889 56.8519 60.0105 55.7229 61.4445 55.7229C62.8785 55.7229 64 56.8519 64 58.1948Z" stroke="#7F9CB3" stroke-width="2"/>
<path d="M31.7553 54.2968L36.4662 50.3827L36.4662 42.8692" stroke="#7F9CB3" stroke-width="2"/>
<path d="M58.2447 54.2968L53.5338 50.3827L53.5338 42.8692" stroke="#7F9CB3" stroke-width="2"/>
<line x1="45.5555" y1="43.3032" x2="45.5555" y2="51.9829" stroke="#7F9CB3" stroke-width="2"/>
</svg>
