<svg width="190" height="80" viewBox="0 0 190 80" fill="none" xmlns="http://www.w3.org/2000/svg">
<rect width="190" height="80" rx="20" fill="#FBFDFE"/>
<path d="M50.0162 40.2738H22.1469C12.5525 39.4925 12.0957 25.0397 23.9744 25.4303C28.5431 16.4461 44.0768 16.4461 46.8181 28.1646C56.8693 28.1646 57.3262 39.1019 50.0162 40.2738Z" fill="#DAE7F1"/>
<path d="M21.1111 58.1948C21.1111 59.5376 19.9895 60.6667 18.5556 60.6667C17.1216 60.6667 16 59.5376 16 58.1948C16 56.8519 17.1216 55.7229 18.5556 55.7229C19.9895 55.7229 21.1111 56.8519 21.1111 58.1948Z" stroke="#7F9CB3" stroke-width="2"/>
<path d="M38 57.3439C38 58.6867 36.8784 59.8157 35.4444 59.8157C34.0104 59.8157 32.8889 58.6867 32.8889 57.3439C32.8889 56.001 34.0104 54.872 35.4444 54.872C36.8784 54.872 38 56.001 38 57.3439Z" stroke="#7F9CB3" stroke-width="2"/>
<path d="M54 58.1948C54 59.5376 52.8785 60.6667 51.4445 60.6667C50.0105 60.6667 48.8889 59.5376 48.8889 58.1948C48.8889 56.8519 50.0105 55.7229 51.4445 55.7229C52.8785 55.7229 54 56.8519 54 58.1948Z" stroke="#7F9CB3" stroke-width="2"/>
<path d="M21.7553 54.2968L26.4662 50.3827L26.4662 42.8692" stroke="#7F9CB3" stroke-width="2"/>
<path d="M48.2447 54.2968L43.5338 50.3827L43.5338 42.8692" stroke="#7F9CB3" stroke-width="2"/>
<line x1="35.5555" y1="43.3031" x2="35.5555" y2="51.9828" stroke="#7F9CB3" stroke-width="2"/>
<path d="M91.927 33.144C93.2923 33.144 94.5083 33.432 95.575 34.008C96.6417 34.5627 97.4843 35.4053 98.103 36.536C98.7217 37.6667 99.031 39.0427 99.031 40.664V51H96.151V41.08C96.151 39.3307 95.7137 37.9973 94.839 37.08C93.9857 36.1413 92.823 35.672 91.351 35.672C89.8363 35.672 88.631 36.1627 87.735 37.144C86.839 38.104 86.391 39.5013 86.391 41.336V51H83.511V41.08C83.511 39.3307 83.0737 37.9973 82.199 37.08C81.3457 36.1413 80.183 35.672 78.711 35.672C77.1963 35.672 75.991 36.1627 75.095 37.144C74.199 38.104 73.751 39.5013 73.751 41.336V51H70.839V33.464H73.751V35.992C74.327 35.0747 75.095 34.3707 76.055 33.88C77.0363 33.3893 78.1137 33.144 79.287 33.144C80.759 33.144 82.0603 33.4747 83.191 34.136C84.3217 34.7973 85.1643 35.768 85.719 37.048C86.2097 35.8107 87.0203 34.8507 88.151 34.168C89.2817 33.4853 90.5403 33.144 91.927 33.144ZM119.808 41.56C119.808 42.1147 119.776 42.7013 119.712 43.32H105.696C105.802 45.048 106.389 46.4027 107.456 47.384C108.544 48.344 109.856 48.824 111.392 48.824C112.65 48.824 113.696 48.536 114.528 47.96C115.381 47.3627 115.978 46.5733 116.32 45.592H119.456C118.986 47.2773 118.048 48.6533 116.64 49.72C115.232 50.7653 113.482 51.288 111.392 51.288C109.728 51.288 108.234 50.9147 106.912 50.168C105.61 49.4213 104.586 48.3653 103.84 47C103.093 45.6133 102.72 44.0133 102.72 42.2C102.72 40.3867 103.082 38.7973 103.808 37.432C104.533 36.0667 105.546 35.0213 106.848 34.296C108.17 33.5493 109.685 33.176 111.392 33.176C113.056 33.176 114.528 33.5387 115.808 34.264C117.088 34.9893 118.069 35.992 118.752 37.272C119.456 38.5307 119.808 39.96 119.808 41.56ZM116.8 40.952C116.8 39.8427 116.554 38.8933 116.064 38.104C115.573 37.2933 114.901 36.6853 114.048 36.28C113.216 35.8533 112.288 35.64 111.264 35.64C109.792 35.64 108.533 36.1093 107.488 37.048C106.464 37.9867 105.877 39.288 105.728 40.952H116.8ZM144.74 33.144C146.105 33.144 147.321 33.432 148.388 34.008C149.454 34.5627 150.297 35.4053 150.916 36.536C151.534 37.6667 151.844 39.0427 151.844 40.664V51H148.964V41.08C148.964 39.3307 148.526 37.9973 147.652 37.08C146.798 36.1413 145.636 35.672 144.164 35.672C142.649 35.672 141.444 36.1627 140.548 37.144C139.652 38.104 139.204 39.5013 139.204 41.336V51H136.324V41.08C136.324 39.3307 135.886 37.9973 135.012 37.08C134.158 36.1413 132.996 35.672 131.524 35.672C130.009 35.672 128.804 36.1627 127.908 37.144C127.012 38.104 126.564 39.5013 126.564 41.336V51H123.652V33.464H126.564V35.992C127.14 35.0747 127.908 34.3707 128.868 33.88C129.849 33.3893 130.926 33.144 132.1 33.144C133.572 33.144 134.873 33.4747 136.004 34.136C137.134 34.7973 137.977 35.768 138.532 37.048C139.022 35.8107 139.833 34.8507 140.964 34.168C142.094 33.4853 143.353 33.144 144.74 33.144ZM164.268 51.288C162.626 51.288 161.132 50.9147 159.788 50.168C158.466 49.4213 157.42 48.3653 156.652 47C155.906 45.6133 155.532 44.0133 155.532 42.2C155.532 40.408 155.916 38.8293 156.684 37.464C157.474 36.0773 158.54 35.0213 159.884 34.296C161.228 33.5493 162.732 33.176 164.396 33.176C166.06 33.176 167.564 33.5493 168.908 34.296C170.252 35.0213 171.308 36.0667 172.076 37.432C172.866 38.7973 173.26 40.3867 173.26 42.2C173.26 44.0133 172.855 45.6133 172.044 47C171.255 48.3653 170.178 49.4213 168.812 50.168C167.447 50.9147 165.932 51.288 164.268 51.288ZM164.268 48.728C165.314 48.728 166.295 48.4827 167.212 47.992C168.13 47.5013 168.866 46.7653 169.42 45.784C169.996 44.8027 170.284 43.608 170.284 42.2C170.284 40.792 170.007 39.5973 169.452 38.616C168.898 37.6347 168.172 36.9093 167.276 36.44C166.38 35.9493 165.41 35.704 164.364 35.704C163.298 35.704 162.316 35.9493 161.42 36.44C160.546 36.9093 159.842 37.6347 159.308 38.616C158.775 39.5973 158.508 40.792 158.508 42.2C158.508 43.6293 158.764 44.8347 159.276 45.816C159.81 46.7973 160.514 47.5333 161.388 48.024C162.263 48.4933 163.223 48.728 164.268 48.728Z" fill="#7F9CB3"/>
</svg>
