<svg width="40" height="40" viewBox="0 0 40 40" fill="none" xmlns="http://www.w3.org/2000/svg">
<rect width="40" height="40" rx="5" fill="#FBFDFE"/>
<path d="M29.8851 20.2961H12.4668C6.47031 19.8078 6.18478 10.7748 13.609 11.0189C16.4644 5.40382 26.173 5.40382 27.8863 12.7279C34.1683 12.7279 34.4538 19.5637 29.8851 20.2961Z" fill="#DAE7F1"/>
<path d="M11.9444 31.4967C11.9444 32.4078 11.1847 33.1666 10.2222 33.1666C9.25977 33.1666 8.5 32.4078 8.5 31.4967C8.5 30.5856 9.25977 29.8268 10.2222 29.8268C11.1847 29.8268 11.9444 30.5856 11.9444 31.4967Z" stroke="#7F9CB3"/>
<path d="M22.4999 30.9649C22.4999 31.876 21.7401 32.6348 20.7777 32.6348C19.8153 32.6348 19.0555 31.876 19.0555 30.9649C19.0555 30.0538 19.8153 29.295 20.7777 29.295C21.7401 29.295 22.4999 30.0538 22.4999 30.9649Z" stroke="#7F9CB3"/>
<path d="M32.5 31.4967C32.5 32.4078 31.7402 33.1666 30.7778 33.1666C29.8153 33.1666 29.0555 32.4078 29.0555 31.4967C29.0555 30.5856 29.8153 29.8268 30.7778 29.8268C31.7402 29.8268 32.5 30.5856 32.5 31.4967Z" stroke="#7F9CB3"/>
<path d="M12.2221 29.0605L15.1664 26.6142L15.1664 21.9182" stroke="#7F9CB3"/>
<path d="M28.7779 29.0605L25.8336 26.6142L25.8336 21.9182" stroke="#7F9CB3"/>
<line x1="20.7222" y1="22.1895" x2="20.7222" y2="27.6143" stroke="#7F9CB3"/>
</svg>
