<svg width="640" height="500" viewBox="0 0 640 500" fill="none" xmlns="http://www.w3.org/2000/svg">
<g opacity="0.3" clip-path="url(#clip0)">
<path opacity="0.1" d="M224.153 490.316C285.714 490.316 335.618 480.862 335.618 469.2C335.618 457.538 285.714 448.084 224.153 448.084C162.592 448.084 112.687 457.538 112.687 469.2C112.687 480.862 162.592 490.316 224.153 490.316Z" fill="#90B7D5"/>
<path opacity="0.1" d="M371.267 70.5126C330.302 69.0947 291.285 55.8657 254.029 41.3961C216.772 26.9264 179.87 10.8997 139.886 3.23447C114.168 -1.69635 84.7544 -2.39894 64.0374 11.3744C44.0926 24.6667 37.649 47.5485 34.1866 68.7972C31.5788 84.786 30.047 101.617 37.1869 116.586C42.1493 126.98 50.9476 135.715 57.0367 145.671C78.2222 180.307 63.2462 223.02 40.2948 256.839C29.5343 272.701 17.0332 287.855 8.72233 304.723C0.411466 321.592 -3.43065 340.986 3.84215 358.241C11.0453 375.331 28.2177 388.142 46.8206 397.162C84.6025 415.486 129.106 420.727 172.534 423.702C268.638 430.272 365.248 427.43 461.604 424.576C497.266 423.525 533.079 422.455 568.158 416.942C587.641 413.878 607.75 409.017 621.897 397.282C639.848 382.388 644.298 357.171 632.265 338.498C612.086 307.166 556.309 299.387 542.187 265.77C534.427 247.262 542.396 226.653 553.682 209.493C577.887 172.674 618.454 140.373 620.587 98.2935C622.055 69.3922 602.554 40.4466 572.399 26.7682C540.795 12.4315 496.962 14.2354 473.656 37.9654C449.635 62.3726 407.441 71.7722 371.267 70.5126Z" fill="#90B7D5"/>
<path d="M338.714 228.97L319.326 215.899L329.105 201.341L277.898 197.258L259.498 211.487L236.464 198.575L217.253 200.885L217.026 195.821C216.788 190.542 216.257 185.28 215.437 180.06C215.519 178.478 215.576 176.661 215.57 174.686C215.57 166.363 214.443 155.33 209.493 147.975L210.633 137.734L201.391 126.815C202.875 123.859 204.568 121.012 206.455 118.295C206.771 117.84 207.088 117.396 207.43 116.966C219.425 116.099 228.887 106.237 228.887 94.1792C228.887 93.6222 228.887 93.0652 228.824 92.5145C228.824 92.293 228.78 92.0651 228.754 91.8436C229.925 92.4766 231.109 93.1095 232.293 93.7425C232.514 94.059 232.767 94.3755 233.046 94.7489L233.103 94.8185L233.457 95.2553L233.571 95.3882C233.698 95.5401 233.831 95.6857 233.964 95.8376L234.052 95.9389C234.388 96.3123 234.742 96.6921 235.122 97.0656C235.167 97.1024 235.21 97.1426 235.249 97.1858L235.723 97.6289L235.856 97.7492C236.261 98.11 236.692 98.4581 237.122 98.7872L237.262 98.8885L237.806 99.262L237.983 99.3759C238.192 99.5025 238.407 99.6354 238.616 99.7557L238.692 99.8C238.939 99.9329 239.192 100.06 239.445 100.18L239.572 100.23C239.787 100.323 239.998 100.412 240.205 100.496L240.401 100.566C240.623 100.642 240.838 100.711 241.066 100.775L241.205 100.813C241.483 100.882 241.762 100.939 242.047 100.984H242.078C242.347 101.027 242.617 101.054 242.889 101.066H243.072C243.315 101.079 243.558 101.079 243.8 101.066H243.958C244.262 101.048 244.564 101.013 244.863 100.958C246.28 100.772 247.64 100.284 248.851 99.5278C249.16 99.3215 249.433 99.0672 249.661 98.7746C250.927 97.1162 249.535 95.2996 249.535 95.2996C249.041 94.1223 245.838 93.2931 245.838 93.2931C245.838 93.2931 235.711 89.0649 235.711 85.6975C235.711 82.3301 233.179 64.8602 207.044 60.8662C207.044 60.8662 190.042 59.9104 185.263 69.0124L185.162 70.0758C183.757 70.9557 182.592 72.7216 181.206 73.2407C180.607 73.3693 180.029 73.5824 179.491 73.8736V73.7534C179.331 73.8933 179.199 74.0632 179.104 74.2534C178.807 74.8459 178.628 75.4911 178.579 76.1523C178.436 76.9601 178.156 77.7373 177.75 78.45C177.637 78.6525 177.51 78.8471 177.37 79.0323V79.0323L177.263 79.2032C177.997 79.2605 178.735 79.1411 179.415 78.8551C179.308 79.7217 179.095 80.5719 178.782 81.387C179.184 81.4 179.582 81.2971 179.927 81.0907C180.273 80.8842 180.552 80.5828 180.731 80.2223V80.1717L180.813 80.0577C180.973 79.7647 181.104 79.4574 181.206 79.1399L181.136 79.2159C181.263 78.8045 181.377 78.3867 181.516 77.9816C181.58 77.7534 181.685 77.5389 181.826 77.3486C181.995 77.1783 182.202 77.0501 182.429 76.9742C182.657 76.8983 182.899 76.877 183.136 76.9119L182.877 82.3997H182.991C182.838 82.7989 182.652 83.1843 182.434 83.5517C181.535 85.0075 179.902 86.0013 179.301 87.5964C179.041 88.3657 178.942 89.1799 179.01 89.989C179.01 90.4637 179.066 90.9448 179.104 91.4195V91.3815C179.193 92.6475 179.218 93.8501 178.535 94.8692C178.066 95.5654 177.313 96.0908 177.054 96.882C176.982 97.1025 176.95 97.3339 176.959 97.5656C177.009 98.2593 177.154 98.9428 177.389 99.5974C177.392 99.5849 177.392 99.572 177.389 99.5595C177.547 100.041 177.584 100.554 177.497 101.053C177.212 102.319 175.674 103.376 175.75 104.585C175.745 104.744 175.769 104.903 175.819 105.054C176.115 105.644 176.628 106.098 177.25 106.32C178.226 106.874 179.347 107.122 180.465 107.028C180.885 106.953 181.29 106.814 181.668 106.617C181.225 107.636 180.769 108.643 180.307 109.598C180.237 109.75 180.162 109.902 180.086 110.054C180.086 110.054 176.174 107.44 173.952 112.769C173.304 113.877 172.84 115.083 172.579 116.339C172.467 116.842 172.31 117.334 172.11 117.808C171.124 119.478 169.648 120.804 167.882 121.606C163.35 123.682 145.044 146.513 144.722 152.425C144.563 154.733 144.173 157.019 143.557 159.248C142.116 164.499 141.746 169.986 142.468 175.383C142.694 177.127 143.069 178.848 143.589 180.529C145.532 186.434 146.829 197.454 146.829 197.454L148.931 216.582C148.853 219.223 148.967 221.865 149.273 224.488C147.127 226.938 138.512 237.148 141.804 239.926C144.336 242.116 148.766 241.756 151.254 241.306C149.159 246.49 145.861 255.504 145.424 261.694C144.791 270.853 146.507 282.987 149.222 287.646C151.938 292.304 160.989 304.255 160.989 304.255C160.989 304.255 160.565 320.649 163.799 326.605C167.034 332.561 168.338 344.917 168.338 344.917C168.338 344.917 171.357 355.348 169.844 359.184C168.331 363.02 172.648 366.21 168.116 368.761C163.584 371.311 157.786 428.804 157.786 428.804C157.786 428.804 155.45 466.484 157.786 468.402C157.911 468.493 158.045 468.572 158.185 468.636V481.296C158.185 481.296 156.564 483.954 163.154 484.492C167.667 484.853 180.459 485.67 188.048 486.144L193.929 486.511C193.929 486.511 207.854 489.284 214.006 486.511C220.159 483.739 231.065 483.802 229.444 476.479C229.23 475.482 228.942 474.503 228.584 473.548C226.805 469.004 223.786 468.485 218.222 467.219C217.899 467.149 217.589 467.086 217.304 467.035C211.443 466.016 209.519 468.744 206.233 465.193C203.379 462.123 194.289 458.686 191.194 457.597C191.27 457.37 191.365 457.148 191.441 456.914C190.565 456.765 189.749 456.368 189.093 455.768L197.48 456.3L202.474 456.61C202.474 456.61 214.31 458.971 219.564 456.61C224.817 454.249 234.059 454.312 232.679 448.09C232.497 447.242 232.254 446.409 231.951 445.596C230.438 441.735 227.868 441.311 223.14 440.242C222.868 440.185 222.615 440.128 222.361 440.083C217.38 439.216 215.747 441.533 212.956 438.52C210.563 435.95 203.012 433.07 200.296 432.089C200.296 430.684 198.397 428.684 197.201 426.677C195.796 424.335 198.391 416.138 198.391 416.138L199.872 382.129C200.436 381.878 201.033 381.707 201.644 381.622C201.644 381.622 208.341 375.229 206.828 368.419C206.52 366.359 206.359 364.279 206.347 362.197C208.55 360.152 211.582 357.133 212.443 355.272C213.848 352.24 212.443 337.549 212.443 337.549V281.373L223.646 282.506L233.812 283.55L236.907 283.867L247.073 284.892L270.435 287.253L291.488 283.266L300.596 281.544L319.326 277.999V232.172L338.714 228.97ZM184.516 77.1144L183.212 76.9752C183.643 76.9942 184.099 77.0765 184.516 77.1144Z" fill="url(#paint0_linear)"/>
<path d="M293.273 258.725C286.943 267.783 264.188 262.985 264.188 262.985L246.554 246.484L244.18 244.25L248.161 235.793C248.161 235.793 249.427 236.141 251.598 236.761C262.998 240.072 298.615 251.111 293.273 258.725Z" fill="#EFB7B9"/>
<path opacity="0.1" d="M251.586 236.761C250.807 239.471 248.674 243.528 246.554 246.484L244.18 244.249L248.161 235.793C248.161 235.793 249.44 236.141 251.586 236.761Z" fill="black"/>
<path d="M191.106 141.399C191.106 141.399 174.851 148.608 175.649 166.312C176.222 177.718 177.465 189.08 179.37 200.341C179.37 200.341 176.047 226.982 189.884 233.85C203.721 240.718 216.526 246.364 216.526 246.364C216.526 246.364 238.173 248.693 240.863 249.655C243.553 250.617 251.959 235.907 250.408 233.616C248.858 231.324 228.989 226.52 226.457 222.697C223.925 218.874 218.07 216.513 218.07 216.513C218.07 216.513 212.025 212.854 211.614 209.55C211.202 206.246 212.797 203.784 213.202 202.334C213.608 200.885 214.633 186.89 214.633 186.89C214.633 186.89 221.456 137.075 191.106 141.399Z" fill="#DCE6F2"/>
<path opacity="0.1" d="M201.834 199.613C201.834 199.613 179.535 203.347 181.693 211.152C181.693 211.152 189.789 202.727 201.834 199.613Z" fill="black"/>
<path opacity="0.1" d="M202.005 202.771C202.005 202.771 189.745 212.778 192.144 213.291C194.543 213.804 202.005 202.771 202.005 202.771Z" fill="black"/>
<path opacity="0.1" d="M207.898 206.259C207.898 206.259 204.613 212.987 206.632 212.531C208.651 212.076 207.898 206.259 207.898 206.259Z" fill="black"/>
<path opacity="0.1" d="M252.408 237.477L251.054 237.091C251.44 235.825 251.548 234.799 251.231 234.325C249.68 232.033 229.824 227.235 227.299 223.406C224.773 219.576 218.912 217.222 218.912 217.222C218.912 217.222 212.867 213.563 212.456 210.259C212.044 206.955 213.639 204.493 214.044 203.043C214.449 201.594 215.475 187.593 215.475 187.593C215.475 187.593 222.279 137.784 191.928 142.108C191.928 142.108 175.674 149.323 176.465 167.027C177.039 178.434 178.284 189.796 180.193 201.056C180.193 201.056 176.87 227.697 190.707 234.565C204.543 241.433 217.348 247.079 217.348 247.079C217.348 247.079 238.99 249.402 241.686 250.37C242.705 250.737 244.547 248.845 246.351 246.243L247.376 247.199L265.011 263.694C265.011 263.694 287.766 268.498 294.096 259.441C299.444 251.82 263.834 240.781 252.408 237.477Z" fill="black"/>
<path d="M181.75 74.9497C181.131 75.0708 180.537 75.3001 179.997 75.627C179.364 76.1523 179.364 77.0511 179.206 77.836C179.02 78.9278 178.587 79.9627 177.94 80.8616C178.66 80.9144 179.383 80.7951 180.048 80.5135C179.939 81.3798 179.727 82.2299 179.415 83.0453C179.809 83.0554 180.198 82.9514 180.535 82.746C180.872 82.5405 181.142 82.2423 181.314 81.887C181.648 81.1737 181.913 80.4297 182.105 79.6653C182.164 79.4367 182.267 79.2217 182.409 79.0323C182.991 78.3424 184.073 78.6525 184.972 78.7412C185.72 78.8042 186.471 78.6661 187.148 78.3411C187.825 78.0162 188.402 77.5161 188.821 76.8929C189.776 75.4434 189.833 71.7342 187.555 71.3418C185.175 70.9493 183.693 74.2281 181.75 74.9497Z" fill="#965D7B"/>
<g opacity="0.1">
<path opacity="0.1" d="M179.934 76.4055C179.991 76.0954 180.029 75.7725 180.098 75.4624C179.497 75.9877 179.465 76.8802 179.307 77.6714C179.227 78.1279 179.102 78.5754 178.934 79.007C179.432 78.2126 179.772 77.3292 179.934 76.4055V76.4055Z" fill="black"/>
<path opacity="0.1" d="M180.136 81.6338C180.451 80.8194 180.664 79.9689 180.769 79.1019C180.135 79.3687 179.449 79.4878 178.763 79.4501C178.563 79.8953 178.319 80.3193 178.035 80.716C178.753 80.7716 179.473 80.6543 180.136 80.3742C180.031 81.2412 179.818 82.0916 179.503 82.9061C179.898 82.9153 180.286 82.8111 180.623 82.6057C180.959 82.4003 181.23 82.1025 181.402 81.7477C181.56 81.46 181.687 81.1567 181.782 80.8426C181.596 81.1022 181.348 81.3107 181.06 81.449C180.773 81.5873 180.455 81.6509 180.136 81.6338V81.6338Z" fill="black"/>
<path opacity="0.1" d="M185.694 77.3296C184.795 77.241 183.706 76.9309 183.124 77.6208C182.985 77.8117 182.882 78.0262 182.82 78.2538C182.763 78.4183 182.712 78.5892 182.668 78.7601C183.269 78.2854 184.244 78.5386 185.061 78.6209C185.808 78.682 186.559 78.5429 187.235 78.2181C187.912 77.8933 188.489 77.3944 188.909 76.7726C189.101 76.4653 189.244 76.13 189.333 75.7789C188.9 76.3154 188.341 76.7373 187.707 77.0077C187.072 77.2781 186.381 77.3886 185.694 77.3296Z" fill="black"/>
</g>
<path d="M200.803 127.226L210.455 138.835L209.196 150.551L197.53 132.29L200.803 127.226Z" fill="#DCE6F2"/>
<path opacity="0.1" d="M210.449 138.835L209.265 149.855L209.189 150.551L198.663 134.069L197.53 132.29L197.859 131.778L200.796 127.226L201.448 128.011L210.449 138.835Z" fill="black"/>
<path d="M215.462 111.51C212.196 112.447 209.075 115.662 206.36 119.568C204.525 122.262 202.883 125.084 201.448 128.011C200.556 129.796 199.771 131.512 199.119 133.005L198.663 134.069C197.562 136.67 196.948 138.411 196.948 138.411C196.948 138.411 171.946 119.612 175.902 118.346C177.231 117.922 178.978 115.073 180.706 111.485L180.921 111.029C182.016 108.725 183.092 106.155 184.048 103.737C186.004 98.7682 187.453 94.4514 187.453 94.4514C187.453 94.4514 225.431 108.662 215.462 111.51Z" fill="#EFB7B9"/>
<path d="M230.419 93.3944C230.419 93.3944 236.192 103.838 243.946 102.414C251.7 100.99 248.509 96.8061 248.509 96.8061L230.419 93.3944Z" fill="#444053"/>
<path d="M219.235 454.914C214.12 457.249 202.556 454.914 202.556 454.914L197.682 454.61C191.352 454.205 180.756 453.521 177.009 453.217C171.54 452.768 172.882 450.527 172.882 450.527V436.988L199.416 430.266C199.416 430.266 209.905 433.855 212.778 436.988C215.506 439.976 217.101 437.678 221.969 438.539C222.21 438.583 222.463 438.634 222.729 438.697C227.349 439.754 229.856 440.172 231.337 444.001C231.635 444.806 231.874 445.631 232.052 446.47C233.419 452.635 224.343 452.591 219.235 454.914Z" fill="#A36468"/>
<path opacity="0.1" d="M231.337 444.001C230.386 444.595 229.387 445.108 228.349 445.533C224.868 447.122 221.558 449.059 218.038 450.559C214.519 452.059 210.727 453.129 206.917 452.844C204.923 452.698 202.885 452.211 200.98 452.781C199.802 453.236 198.692 453.851 197.682 454.61C191.352 454.205 180.756 453.521 177.009 453.217C171.54 452.768 172.882 450.527 172.882 450.527V448.945C173.079 448.945 173.3 448.888 173.553 448.869C174.863 448.848 176.168 449.043 177.414 449.445C180.161 450.192 182.896 450.926 185.643 451.66C185.869 450.808 186.266 450.01 186.81 449.316C187.354 448.621 188.034 448.045 188.808 447.622C190.376 446.79 192.136 446.386 193.91 446.451C198.169 446.508 202.201 448.527 206.455 448.73C207.644 448.839 208.841 448.638 209.93 448.147C210.512 447.856 211.025 447.432 211.595 447.109C212.506 446.668 213.47 446.343 214.462 446.141C217.251 445.446 219.99 444.562 222.659 443.495C223.418 443.197 224.305 442.659 224.203 441.849C224.07 440.773 222.38 440.647 221.937 439.659C221.859 439.481 221.823 439.287 221.832 439.093C221.841 438.899 221.894 438.709 221.988 438.539C222.229 438.583 222.482 438.634 222.748 438.697C227.349 439.754 229.856 440.172 231.337 444.001Z" fill="black"/>
<path d="M213.829 484.537C207.816 487.284 194.207 484.537 194.207 484.537L188.479 484.201C181.06 483.726 168.566 482.935 164.154 482.562C157.717 482.03 159.299 479.397 159.299 479.397V463.44L190.523 455.528C190.523 455.528 202.866 459.75 206.246 463.44C209.455 466.953 211.31 464.25 217.064 465.263C217.348 465.313 217.646 465.377 217.956 465.446C223.393 466.712 226.343 467.187 228.084 471.694C228.436 472.64 228.717 473.611 228.925 474.599C230.495 481.853 219.842 481.796 213.829 484.537Z" fill="#A36468"/>
<path opacity="0.1" d="M228.071 471.694C226.952 472.392 225.777 472.996 224.558 473.498C220.463 475.365 216.564 477.644 212.424 479.41C208.284 481.176 203.822 482.429 199.334 482.1C196.992 481.929 194.593 481.34 192.372 482.024C190.979 482.566 189.669 483.299 188.479 484.201C181.06 483.726 168.566 482.935 164.154 482.562C157.717 482.03 159.299 479.397 159.299 479.397V477.536C159.561 477.493 159.825 477.464 160.09 477.447C161.632 477.419 163.168 477.648 164.635 478.125L174.313 480.732C174.583 479.727 175.054 478.786 175.7 477.969C176.345 477.152 177.151 476.474 178.066 475.979C179.911 474.995 181.984 474.519 184.073 474.599C189.086 474.669 193.827 477.042 198.834 477.283C200.228 477.41 201.632 477.177 202.91 476.606C203.6 476.257 204.176 475.757 204.873 475.384C205.943 474.86 207.077 474.477 208.246 474.245C211.511 473.421 214.716 472.38 217.842 471.13C218.735 470.776 219.779 470.143 219.659 469.193C219.501 467.928 217.513 467.776 216.988 466.611C216.899 466.401 216.859 466.173 216.87 465.945C216.881 465.718 216.943 465.495 217.051 465.294C217.336 465.345 217.633 465.408 217.943 465.478C223.381 466.693 226.33 467.187 228.071 471.694Z" fill="black"/>
<path d="M200.22 375.04L198.53 414.809C198.53 414.809 195.998 422.93 197.372 425.253C198.745 427.576 201.062 429.892 200.22 431.266C199.378 432.64 189.251 447.489 185.978 441.792C182.706 436.096 179.478 411.41 179.478 411.41L182.497 380.92L200.22 375.04Z" fill="#444053"/>
<path d="M207.55 275.955L212.247 282.234V336.846C212.247 336.846 213.62 351.405 212.247 354.411C210.873 357.418 203.91 363.431 203.91 363.431L198.056 333.365L199.321 301.558L207.55 275.955Z" fill="#444053"/>
<path opacity="0.1" d="M200.22 375.04L198.53 414.809C198.53 414.809 195.998 422.93 197.372 425.253C198.745 427.576 201.062 429.892 200.22 431.266C199.378 432.64 189.251 447.489 185.978 441.792C182.706 436.096 179.478 411.41 179.478 411.41L182.497 380.92L200.22 375.04Z" fill="black"/>
<path opacity="0.1" d="M207.55 275.955L212.247 282.234V336.846C212.247 336.846 213.62 351.405 212.247 354.411C210.873 357.418 203.91 363.431 203.91 363.431L198.056 333.365L199.321 301.558L207.55 275.955Z" fill="black"/>
<path d="M212.247 252.662V282.202L206.974 305.198C206.974 305.198 205.284 360.69 206.759 367.438C208.234 374.185 201.695 380.521 201.695 380.521C201.695 380.521 197.897 380.945 197.897 383.895C197.897 386.844 191.568 395.288 191.568 395.288L191.777 411.745C191.777 411.745 194.524 442.552 190.302 448.458C186.08 454.363 191.777 455.211 191.777 455.211C186.504 472.51 161.185 468.504 158.9 466.605C156.615 464.706 158.9 427.361 158.9 427.361C158.9 427.361 164.559 370.394 168.99 367.862C173.42 365.33 169.205 362.165 170.68 358.367C172.155 354.569 169.205 344.233 169.205 344.233C169.205 344.233 167.939 331.991 164.774 326.086C161.609 320.18 162.027 303.932 162.027 303.932C162.027 303.932 153.166 292.115 150.532 287.475C147.899 282.835 146.203 270.809 146.836 261.732C147.266 255.599 150.488 246.667 152.533 241.528C153.514 239.065 154.223 237.47 154.223 237.47L154.824 237.629L189.397 246.68L212.247 252.662Z" fill="#444053"/>
<path opacity="0.1" d="M215.462 111.51C212.196 112.447 209.075 115.662 206.36 119.568H205.651C201.671 119.57 197.761 118.522 194.315 116.53C190.87 114.537 188.011 111.67 186.029 108.218C185.201 106.788 184.534 105.27 184.042 103.693C185.997 98.7239 187.447 94.4071 187.447 94.4071C187.447 94.4071 225.431 108.662 215.462 111.51Z" fill="black"/>
<path d="M228.28 95.6857C228.285 99.149 227.496 102.567 225.972 105.678C224.449 108.788 222.231 111.507 219.491 113.625C216.751 115.743 213.562 117.204 210.168 117.896C206.774 118.587 203.267 118.49 199.917 117.612C196.567 116.735 193.462 115.1 190.844 112.833C188.225 110.567 186.161 107.73 184.811 104.54C183.462 101.351 182.862 97.8938 183.059 94.4361C183.256 90.9783 184.244 87.6119 185.947 84.5961C186.633 83.3707 187.434 82.2135 188.339 81.1401C189.832 79.3618 191.587 77.8209 193.542 76.5701C196.846 74.4706 200.638 73.2641 204.548 73.0684C208.457 72.8726 212.351 73.6944 215.848 75.4534C219.345 77.2124 222.325 79.8484 224.499 83.104C226.672 86.3595 227.964 90.1232 228.248 94.0273C228.261 94.5843 228.28 95.135 228.28 95.6857Z" fill="#EFB7B9"/>
<path opacity="0.1" d="M209.265 149.855L209.189 150.551L198.663 134.094C197.562 136.696 196.948 138.436 196.948 138.436C196.948 138.436 171.946 119.612 175.902 118.346C177.231 117.922 178.978 115.073 180.706 111.485L180.921 111.029C182.757 116.498 193.422 127.429 197.859 131.809C198.372 132.316 198.796 132.733 199.125 133.037L199.802 133.67L200.157 134.025C201.771 135.689 208.582 143.032 209.265 149.855Z" fill="black"/>
<path d="M217.133 205.695L215.981 242.768L215.779 249.37C215.779 249.37 202.132 248.104 189.397 246.712C179.142 245.591 169.477 244.382 167.99 243.674C166.091 242.781 162.021 242.091 158.812 241.654C156.33 241.319 154.381 241.142 154.381 241.142C154.381 241.142 153.653 241.357 152.533 241.559C150.089 242.002 145.798 242.363 143.298 240.192C140.101 237.413 148.501 227.318 150.596 224.893L151.058 224.368L150.267 217.057L148.209 198.1C148.209 198.1 146.943 187.181 145.045 181.326C144.537 179.662 144.171 177.957 143.949 176.231C143.244 170.883 143.605 165.449 145.013 160.242C145.614 158.03 145.996 155.763 146.152 153.476C146.469 147.621 164.35 124.992 168.781 122.935C170.774 122.005 172.378 120.406 173.313 118.416C173.622 117.79 173.853 117.129 174.003 116.447C175.902 108.218 180.706 111.485 180.706 111.485C181.864 117.922 199.796 134.961 199.796 134.961L200.151 135.316C201.929 137.139 209.854 145.696 209.291 153.001C209.178 155.72 209.584 158.435 210.487 161.002C214.134 172.487 216.231 184.407 216.722 196.448L217.133 205.695Z" fill="#DCE6F2"/>
<path opacity="0.1" d="M191.726 161.673C191.726 161.673 187.295 172.433 183.972 174.174C180.649 175.914 193.308 177.845 191.726 161.673Z" fill="black"/>
<path opacity="0.1" d="M195.049 181.769C195.049 181.769 184.921 183.035 184.921 184.934C184.921 186.833 195.049 181.769 195.049 181.769Z" fill="black"/>
<path opacity="0.1" d="M205.651 194.112C205.651 194.112 190.935 225.444 186.82 226.393C182.706 227.343 205.651 194.112 205.651 194.112Z" fill="black"/>
<path opacity="0.1" d="M199.518 136.55L187.346 141.842L172.655 119.65C172.963 119.024 173.195 118.363 173.344 117.681C175.243 109.453 180.048 112.719 180.048 112.719C181.206 119.156 199.138 136.196 199.138 136.196L199.518 136.55Z" fill="black"/>
<path d="M200.151 135.284L187.979 140.576L173.287 118.384C173.596 117.758 173.828 117.097 173.977 116.415C175.876 108.187 180.681 111.453 180.681 111.453C181.839 117.89 199.771 134.93 199.771 134.93L200.151 135.284Z" fill="#DCE6F2"/>
<path opacity="0.1" d="M215.779 249.37C215.779 249.37 202.132 248.104 189.397 246.712L212.247 252.693V259.656C211.247 260.561 210.379 261.029 209.816 260.789C207.183 259.681 185.694 256.2 185.694 256.2C185.694 256.2 173.212 249.87 159.742 242.275C159.415 242.094 159.098 241.895 158.793 241.68C157.222 240.613 155.869 239.258 154.805 237.686C152.317 234.084 151.102 229.457 150.577 224.919C150.281 222.318 150.171 219.699 150.248 217.083C150.313 214.116 150.583 211.157 151.058 208.227C149.755 196.881 149.121 185.468 149.159 174.047C149.317 156.324 165.932 149.994 165.932 149.994C196.473 147.304 187.004 196.676 187.004 196.676C187.004 196.676 185.238 210.601 184.757 212.025C184.276 213.449 182.548 215.823 182.782 219.146C183.016 222.469 188.852 226.444 188.852 226.444C188.852 226.444 194.549 229.115 196.897 233.071C198.606 235.989 209.708 239.945 215.981 242.768L215.779 249.37Z" fill="black"/>
<path opacity="0.1" d="M226.007 81.6338C226.019 82.6764 225.803 83.7089 225.374 84.6594C225.05 85.435 224.674 86.1878 224.248 86.9128C223.582 88.2463 222.636 89.4207 221.475 90.3561C220.013 91.4005 218.165 91.6917 216.412 92.1158C214.658 92.5399 212.835 93.2171 211.835 94.7109C211.293 95.6712 210.931 96.7222 210.766 97.8125C210.598 98.9018 210.163 99.9326 209.5 100.813C209.154 101.242 208.676 101.545 208.14 101.674C207.603 101.802 207.04 101.748 206.537 101.522C206.008 101.165 205.607 100.648 205.392 100.047C204.67 98.4201 204.486 96.6162 204.195 94.8628C203.904 93.1095 203.493 91.3056 202.417 89.8941C201.341 88.4825 199.435 87.5521 197.745 88.1028C197.18 88.3205 196.664 88.6503 196.229 89.0723C195.794 89.4943 195.448 89.9999 195.214 90.5587C194.746 91.6773 194.425 92.8517 194.258 94.0526C193.473 98.3484 192.547 102.619 191.479 106.864C191.446 107.038 191.375 107.202 191.27 107.345C191.102 107.513 190.875 107.608 190.637 107.611C189.219 107.801 187.858 106.807 186.428 106.915C186.281 106.924 186.134 106.948 185.991 106.984C183.678 102.965 182.657 98.3312 183.066 93.7117C183.475 89.0923 185.293 84.7101 188.276 81.1591L188.39 81.1274C189.342 80.7896 190.206 80.2448 190.922 79.5324C191.836 78.618 192.682 77.6386 193.454 76.6017L193.96 75.9688C195.415 74.216 197.072 72.6416 198.897 71.2785C199.396 70.8703 199.967 70.561 200.581 70.367C201.107 70.2646 201.645 70.2475 202.176 70.3164C204.362 70.5788 206.566 70.6613 208.765 70.5632C210.298 70.3223 211.843 70.1659 213.392 70.0948C217.399 70.2088 220.817 73.0381 223.349 76.1397C224.71 77.7284 225.925 79.5577 226.007 81.6338Z" fill="black"/>
<path d="M182.991 85.1974C182.111 86.6406 180.522 87.6217 179.927 89.2041C179.054 91.5018 180.529 94.3628 179.174 96.4136C178.725 97.1035 177.984 97.6162 177.731 98.4074C177.3 99.743 178.478 101.167 178.174 102.541C177.87 103.914 176.06 105.073 176.541 106.414C176.825 107 177.324 107.453 177.933 107.68C178.893 108.231 179.996 108.476 181.098 108.383C182.826 108.098 184.111 106.402 185.865 106.275C187.289 106.174 188.65 107.161 190.067 106.978C190.305 106.97 190.531 106.872 190.7 106.706C190.808 106.565 190.88 106.4 190.909 106.225C191.973 101.984 192.901 97.7133 193.694 93.4133C193.856 92.212 194.175 91.0373 194.644 89.9194C194.881 89.3617 195.227 88.8572 195.661 88.4354C196.096 88.0136 196.611 87.6831 197.176 87.4634C198.866 86.9191 200.765 87.8432 201.847 89.2547C202.929 90.6663 203.341 92.4702 203.632 94.2235C203.923 95.9769 204.107 97.7808 204.822 99.4075C205.039 100.011 205.443 100.53 205.974 100.889C206.923 101.439 208.202 101.003 208.93 100.18C209.597 99.2992 210.032 98.2655 210.196 97.1732C210.361 96.0849 210.723 95.036 211.266 94.078C212.266 92.5842 214.095 91.9069 215.842 91.4828C217.589 91.0587 219.431 90.7612 220.906 89.7168C222.065 88.7824 223.01 87.6104 223.678 86.2798C224.615 84.6467 225.488 82.8744 225.412 80.9945C225.33 78.9437 224.115 77.1144 222.817 75.5193C220.285 72.4178 216.861 69.5884 212.854 69.4808C211.304 69.5457 209.759 69.7021 208.227 69.9492C206.028 70.0481 203.824 69.9635 201.638 69.696C201.107 69.6325 200.569 69.6517 200.043 69.753C199.428 69.9408 198.858 70.2508 198.366 70.6645C196.539 72.0254 194.879 73.5976 193.422 75.3484C192.482 76.5944 191.463 77.7784 190.371 78.8931C189.655 79.6067 188.791 80.1535 187.839 80.4945C187.206 80.6717 186.573 80.5451 185.972 80.7413C184.105 81.33 183.858 83.7669 182.991 85.1974Z" fill="#965D7B"/>
<path opacity="0.1" d="M243.946 102.408C238.882 103.338 234.685 99.243 232.362 96.2554C231.649 95.348 231 94.392 230.419 93.3944L247.8 96.6731L248.503 96.8061C248.503 96.8061 251.7 100.99 243.946 102.408Z" fill="black"/>
<g opacity="0.1">
<path opacity="0.1" d="M178.174 100.73C178.245 99.9026 178.119 99.0698 177.807 98.2999C177.807 98.3631 177.75 98.4264 177.731 98.4897C177.459 99.3379 177.826 100.218 178.06 101.098C178.11 100.979 178.149 100.856 178.174 100.73V100.73Z" fill="black"/>
<path opacity="0.1" d="M179.68 90.3688C179.615 91.244 179.632 92.1235 179.731 92.9956C179.796 92.1203 179.779 91.2409 179.68 90.3688Z" fill="black"/>
<path opacity="0.1" d="M223.64 84.4505C222.974 85.784 222.028 86.9585 220.868 87.8939C219.406 88.9383 217.564 89.2294 215.804 89.6535C214.044 90.0776 212.228 90.7549 211.228 92.2487C210.686 93.2094 210.324 94.2602 210.158 95.3502C209.993 96.4422 209.558 97.4758 208.892 98.3568C208.164 99.1797 206.885 99.6228 205.936 99.0657C205.405 98.7066 205.001 98.1879 204.784 97.5846C204.069 95.9579 203.879 94.1602 203.594 92.4006C203.309 90.6409 202.885 88.8433 201.809 87.4318C200.733 86.0203 198.828 85.0898 197.138 85.6405C196.573 85.8592 196.057 86.1893 195.622 86.6112C195.187 87.0332 194.842 87.5382 194.606 88.0964C194.137 89.2143 193.818 90.3891 193.656 91.5904C192.867 95.8904 191.939 100.161 190.871 104.402C190.842 104.577 190.77 104.742 190.662 104.883C190.493 105.049 190.267 105.147 190.03 105.155C188.612 105.338 187.251 104.351 185.827 104.452C184.073 104.579 182.788 106.275 181.06 106.554C179.958 106.653 178.852 106.407 177.896 105.851C177.456 105.662 177.061 105.381 176.737 105.028C176.589 105.24 176.491 105.483 176.45 105.739C176.41 105.994 176.428 106.256 176.503 106.503C176.782 107.092 177.282 107.547 177.896 107.769C178.852 108.325 179.958 108.57 181.06 108.472C182.788 108.193 184.073 106.497 185.827 106.37C187.251 106.269 188.612 107.256 190.03 107.073C190.267 107.065 190.493 106.967 190.662 106.801C190.77 106.66 190.842 106.494 190.871 106.32C191.935 102.1 192.863 97.8293 193.656 93.5083C193.818 92.307 194.137 91.1322 194.606 90.0143C194.842 89.4561 195.187 88.951 195.622 88.5291C196.057 88.1072 196.573 87.7771 197.138 87.5584C198.828 87.0077 200.727 87.9382 201.809 89.3497C202.891 90.7612 203.303 92.5652 203.594 94.3185C203.885 96.0718 204.069 97.8758 204.784 99.5025C205.001 100.106 205.405 100.624 205.936 100.984C206.885 101.534 208.164 101.098 208.892 100.275C209.558 99.3936 209.993 98.3601 210.158 97.2681C210.324 96.1781 210.686 95.1273 211.228 94.1666C212.228 92.6728 214.057 92.0018 215.804 91.5714C217.551 91.141 219.393 90.8561 220.868 89.8118C222.028 88.8763 222.974 87.7019 223.64 86.3684C224.577 84.7417 225.45 82.9694 225.374 81.0895C225.362 80.8477 225.337 80.6069 225.298 80.3679C224.993 81.8166 224.431 83.1992 223.64 84.4505V84.4505Z" fill="black"/>
</g>
<path opacity="0.1" d="M225.4 84.6404C227.023 87.5264 227.985 90.7369 228.216 94.04C222.577 90.8752 217.272 87.4002 214.595 86.1912C209.93 84.0834 192.485 84.3999 185.928 84.5961C186.614 83.3707 187.415 82.2135 188.32 81.1401C189.819 79.3604 191.58 77.8193 193.542 76.5701C196.142 74.9205 199.05 73.8183 202.09 73.3309C205.129 72.8434 208.237 72.981 211.221 73.7352C214.206 74.4894 217.006 75.8443 219.449 77.7171C221.892 79.59 223.928 81.9414 225.431 84.6278L225.4 84.6404Z" fill="black"/>
<path opacity="0.1" d="M245.528 99.724C242.484 100.661 237.515 98.8506 232.362 96.2554C231.649 95.348 231 94.3921 230.419 93.3944L247.8 96.6731C248.952 97.458 249.244 98.5784 245.528 99.724Z" fill="black"/>
<path d="M206.999 62.6954C206.999 62.6954 190.384 61.746 185.713 70.7658L184.959 78.7602L183.693 78.6209L183.44 84.0581C183.44 84.0581 208.835 82.9504 214.614 85.5582C220.393 88.166 238.35 101.306 245.547 99.0911C252.744 96.8757 244.914 94.8185 244.914 94.8185C244.914 94.8185 235.008 90.622 235.008 87.3305C235.008 84.0391 232.552 66.6515 206.999 62.6954Z" fill="#444053"/>
<path opacity="0.1" d="M174.952 359.051C174.952 359.051 185.554 369.337 190.143 368.545C190.143 368.545 177.168 367.438 174.952 359.051Z" fill="black"/>
<path opacity="0.1" d="M172.737 363.817C172.737 363.817 173.686 369.109 176.218 368.59C178.75 368.071 172.737 363.817 172.737 363.817Z" fill="black"/>
<path opacity="0.1" d="M189.352 452.255C189.352 452.255 174.3 463.965 176.838 464.282C179.377 464.598 189.352 452.255 189.352 452.255Z" fill="black"/>
<path d="M209.487 219.849L258.225 211.918V258.061L211.917 255.637L209.487 219.849Z" fill="#90B7D5"/>
<path opacity="0.05" d="M209.487 219.849L258.225 211.918V258.061L211.917 255.637L209.487 219.849Z" fill="black"/>
<path d="M258.225 211.918L316.674 216.291L313.439 256.447L258.225 258.061V211.918Z" fill="#90B7D5"/>
<path opacity="0.1" d="M258.225 211.918L316.674 216.291L313.439 256.447L258.225 258.061V211.918Z" fill="black"/>
<path d="M276.195 197.834L258.225 211.918L316.674 216.291L326.225 201.879L276.195 197.834Z" fill="#90B7D5"/>
<path d="M191.84 204.467L235.717 199.125L258.225 211.918L209.487 219.849L191.84 204.467Z" fill="#90B7D5"/>
<path d="M268.91 223.9V286.987L246.079 284.645L236.147 283.633L233.122 283.316L223.197 282.297L209.487 280.892V219.849L258.219 223.165L268.91 223.9Z" fill="#90B7D5"/>
<path d="M316.674 216.291V277.816L298.375 281.329L289.475 283.038L268.91 286.987V223.9L316.674 216.291Z" fill="#90B7D5"/>
<path opacity="0.05" d="M316.674 216.291V277.816L298.375 281.329L289.475 283.038L268.91 286.987V223.9L316.674 216.291Z" fill="black"/>
<path d="M191.84 233.128L209.487 219.849L268.91 223.9L260.162 238.635L191.84 233.128Z" fill="#90B7D5"/>
<path opacity="0.1" d="M191.84 233.128L209.487 219.849L268.91 223.9L260.162 238.635L191.84 233.128Z" fill="white"/>
<path d="M316.674 216.291L268.91 223.9L284.456 237.825L335.618 229.242L316.674 216.291Z" fill="#90B7D5"/>
<path opacity="0.1" d="M316.674 216.291L268.91 223.9L284.456 237.825L335.618 229.242L316.674 216.291Z" fill="white"/>
<path opacity="0.1" d="M298.375 281.329L289.475 283.038V269.891L297.811 267.79L298.375 281.329Z" fill="white"/>
<path opacity="0.1" d="M246.079 275.948V284.645L236.147 283.633V275.948H246.079Z" fill="white"/>
<path opacity="0.1" d="M233.122 278.689V283.316L223.197 282.297V278.689H233.122Z" fill="white"/>
<path opacity="0.1" d="M262.935 271.334C256.13 280.037 233.66 274.024 233.66 274.024L216.962 256.605L214.696 254.244L219.127 246.015C219.127 246.015 220.393 246.433 222.507 247.167C233.698 251.079 268.663 264.011 262.935 271.334Z" fill="black"/>
<path d="M262.302 270.068C255.497 278.772 233.027 272.758 233.027 272.758L216.329 255.339L214.063 252.978L218.494 244.75C218.494 244.75 219.76 245.167 221.874 245.902C233.065 249.813 268.03 262.745 262.302 270.068Z" fill="#EFB7B9"/>
<path opacity="0.1" d="M221.849 245.902C220.925 248.56 218.576 252.497 216.304 255.339L214.038 252.978L218.469 244.75C218.469 244.75 219.741 245.167 221.849 245.902Z" fill="black"/>
<path d="M166.565 147.462C166.565 147.462 149.95 153.792 149.792 171.515C149.754 182.936 150.388 194.349 151.691 205.695C151.691 205.695 146.943 232.122 160.394 239.717C173.845 247.313 186.346 253.643 186.346 253.643C186.346 253.643 207.835 257.124 210.474 258.232C213.114 259.339 222.286 245.098 220.861 242.724C219.437 240.35 199.872 234.495 197.549 230.539C195.226 226.583 189.504 223.919 189.504 223.919C189.504 223.919 183.668 219.937 183.434 216.614C183.2 213.291 184.921 210.917 185.409 209.493C185.896 208.069 187.662 194.144 187.662 194.144C187.662 194.144 197.106 144.741 166.565 147.462Z" fill="#DCE6F2"/>
<path opacity="0.1" d="M174.161 206.139C174.161 206.139 151.691 208.67 153.431 216.582C153.431 216.582 161.97 208.601 174.161 206.139Z" fill="black"/>
<path opacity="0.1" d="M174.161 209.303C174.161 209.303 161.407 218.64 163.749 219.273C166.091 219.906 174.161 209.303 174.161 209.303Z" fill="black"/>
<path opacity="0.1" d="M179.858 213.101C179.858 213.101 176.218 219.646 178.275 219.304C180.332 218.962 179.858 213.101 179.858 213.101Z" fill="black"/>
<path d="M413.815 71.1392C413.815 71.1392 389.763 69.6897 392.573 86.5646C392.573 86.5646 392.01 89.5459 394.712 90.9005C394.712 90.9005 394.757 89.6345 397.181 90.0713C398.044 90.2166 398.922 90.2591 399.795 90.1979C400.979 90.1189 402.104 89.6543 402.998 88.875V88.875C402.998 88.875 409.764 86.0836 412.397 75.0193C412.397 75.0193 414.347 72.6014 414.296 71.9811L410.233 73.7217C410.233 73.7217 411.619 76.6524 410.524 79.0893C410.524 79.0893 410.397 73.8293 409.612 73.9496C409.454 73.9496 407.505 74.9687 407.505 74.9687C407.505 74.9687 409.891 80.0704 408.087 83.7859C408.087 83.7859 408.771 77.4942 406.758 75.3358L403.897 77.0068C403.897 77.0068 406.688 82.2794 404.795 86.5836C404.795 86.5836 405.283 79.9818 403.295 77.4119L400.7 79.4311C400.7 79.4311 403.327 84.6341 401.726 88.204C401.726 88.204 401.517 80.5198 400.137 79.9375C400.137 79.9375 397.871 81.9376 397.529 82.7605C397.529 82.7605 399.32 86.5583 398.206 88.5268C398.206 88.5268 397.523 83.4061 396.94 83.3808C396.94 83.3808 394.681 86.7735 394.446 89.0775C394.556 86.9295 395.226 84.8477 396.39 83.039C395.087 83.2854 393.886 83.9082 392.934 84.8303C392.934 84.8303 393.282 82.4314 396.947 82.2225C396.947 82.2225 398.846 79.6463 399.314 79.4881C399.314 79.4881 395.668 79.1842 393.459 80.1653C393.459 80.1653 395.402 77.9056 399.985 78.8994L402.517 76.8106C402.517 76.8106 397.719 76.1776 395.681 76.8802C395.681 76.8802 398.023 74.8801 403.207 76.3359L405.992 74.6712C405.992 74.6712 401.903 73.785 399.466 74.1078C399.466 74.1078 402.036 72.7216 406.808 74.2218L408.802 73.3293C408.802 73.3293 405.802 72.7406 404.928 72.6457C404.055 72.5507 404.004 72.3102 404.004 72.3102C405.902 71.9943 407.851 72.2135 409.631 72.9432C409.631 72.9432 413.904 71.4051 413.815 71.1392Z" fill="#90B7D5"/>
<path opacity="0.1" d="M486.897 155.539C486.897 155.539 462.845 154.09 465.655 170.965C465.655 170.965 465.092 173.946 467.795 175.3C467.795 175.3 467.839 174.034 470.269 174.471C471.133 174.616 472.01 174.659 472.884 174.598C474.053 174.513 475.164 174.051 476.048 173.281V173.281C476.048 173.281 482.821 170.483 485.454 159.419C485.454 159.419 487.398 157.008 487.322 156.387L483.258 158.122C483.258 158.122 484.644 161.052 483.555 163.489C483.555 163.489 483.422 158.229 482.644 158.349C482.486 158.349 480.53 159.369 480.53 159.369C480.53 159.369 482.922 164.477 481.119 168.186C481.119 168.186 481.802 161.894 479.783 159.736L476.954 161.388C476.954 161.388 479.745 166.66 477.852 170.965C477.852 170.965 478.34 164.363 476.352 161.793L473.763 163.818C473.763 163.818 476.384 169.015 474.789 172.585C474.789 172.585 474.58 164.901 473.2 164.318C473.2 164.318 470.934 166.319 470.586 167.141C470.586 167.141 472.384 170.939 471.27 172.908C471.27 172.908 470.586 167.787 470.004 167.762C470.004 167.762 467.744 171.154 467.51 173.458C467.623 171.31 468.295 169.229 469.459 167.42C468.155 167.667 466.952 168.289 465.997 169.211C465.997 169.211 466.351 166.812 470.016 166.603C470.016 166.603 471.884 164.027 472.384 163.869C472.384 163.869 468.738 163.565 466.529 164.546C466.529 164.546 468.472 162.287 473.048 163.312L475.58 161.223C475.58 161.223 470.776 160.59 468.744 161.293C468.744 161.293 471.086 159.293 476.27 160.748L479.055 159.084C479.055 159.084 474.96 158.204 472.523 158.52C472.523 158.52 475.099 157.134 479.872 158.634L481.865 157.742C481.865 157.742 478.865 157.153 477.985 157.058C477.105 156.963 477.061 156.723 477.061 156.723C478.961 156.407 480.912 156.626 482.695 157.356C482.695 157.356 486.973 155.805 486.897 155.539Z" fill="#90B7D5"/>
<path opacity="0.1" d="M340.777 140.557C340.777 140.557 346.315 117.08 329.2 116.998C329.2 116.998 326.358 115.934 324.567 118.365C324.567 118.365 325.788 118.624 324.959 120.941C324.672 121.76 324.481 122.61 324.389 123.473C324.267 124.65 324.531 125.834 325.143 126.847V126.847C325.143 126.847 326.744 133.999 337.169 138.481C337.169 138.481 339.22 140.81 339.84 140.835L338.827 136.537C338.827 136.537 335.701 137.405 333.485 135.904C333.485 135.904 338.695 136.67 338.701 135.904C338.701 135.746 338.068 133.651 338.068 133.651C338.068 133.651 332.631 135.132 329.276 132.721C329.276 132.721 335.359 134.468 337.834 132.854L336.694 129.739C336.694 129.739 330.998 131.594 327.099 128.992C327.099 128.992 333.523 130.6 336.397 129.081L334.846 126.182C334.846 126.182 329.276 127.878 326.029 125.695C326.029 125.695 333.624 126.796 334.447 125.543C334.447 125.543 332.865 122.967 332.112 122.486C332.112 122.486 328.086 123.612 326.314 122.175C326.314 122.175 331.472 122.372 331.593 121.827C331.593 121.827 328.637 119.023 326.383 118.39C328.483 118.868 330.422 119.885 332.01 121.34C331.987 120.013 331.578 118.722 330.833 117.624C330.833 117.624 333.137 118.384 332.732 122.055C332.732 122.055 334.947 124.334 335.017 124.853C335.017 124.853 335.935 121.315 335.346 118.966C335.346 118.966 337.245 121.27 335.454 125.606L337.074 128.486C337.074 128.486 338.543 123.865 338.169 121.739C338.169 121.739 339.745 124.384 337.422 129.246L338.593 132.278C338.593 132.278 340.157 128.391 340.258 125.948C340.258 125.948 341.188 128.72 338.891 133.17L339.435 135.284C339.435 135.284 340.524 132.429 340.764 131.581C341.005 130.733 341.252 130.727 341.252 130.727C341.242 132.652 340.696 134.537 339.676 136.17C339.676 136.17 340.505 140.588 340.777 140.557Z" fill="#90B7D5"/>
<path opacity="0.1" d="M288.101 148.557C288.101 148.557 268.783 134.107 261.878 149.76C261.878 149.76 259.77 151.944 261.283 154.558C261.283 154.558 262.004 153.539 263.814 155.229C264.456 155.825 265.165 156.344 265.929 156.773C266.962 157.349 268.156 157.571 269.328 157.406V157.406C269.328 157.406 276.518 158.793 284.797 151.001C284.797 151.001 287.753 150.051 288.032 149.494L283.671 148.728C283.671 148.728 283.215 151.938 280.968 153.374C280.968 153.374 283.747 148.906 283.025 148.583C282.879 148.513 280.702 148.266 280.702 148.266C280.702 148.266 279.892 153.849 276.347 155.957C276.347 155.957 280.379 151.077 279.879 148.165L276.569 147.988C276.569 147.988 276.005 153.931 272.056 156.489C272.056 156.489 276.088 151.241 275.854 148L272.575 148.266C272.575 148.266 271.91 154.045 268.612 156.147C268.612 156.147 272.657 149.615 271.828 148.374C271.828 148.374 268.834 148.798 268.093 149.292C268.093 149.292 267.517 153.431 265.492 154.482C265.492 154.482 267.739 149.83 267.283 149.507C267.283 149.507 263.53 151.096 262.055 152.906C263.331 151.173 265.037 149.802 267.005 148.931C265.78 148.422 264.434 148.281 263.131 148.526C263.131 148.526 264.739 146.716 267.916 148.557C267.916 148.557 270.891 147.437 271.397 147.576C271.397 147.576 268.517 145.317 266.131 144.924C266.131 144.924 269.005 144.101 272.265 147.456L275.55 147.121C275.55 147.121 271.897 143.956 269.802 143.424C269.802 143.424 272.86 143.038 276.385 147.102L279.626 147.247C279.626 147.247 276.695 144.26 274.486 143.184C274.486 143.184 277.392 143.437 280.556 147.317L282.715 147.665C282.715 147.665 280.531 145.526 279.848 144.969C279.164 144.412 279.259 144.177 279.259 144.177C281.02 144.957 282.53 146.211 283.62 147.798C283.62 147.798 288.019 148.817 288.101 148.557Z" fill="#90B7D5"/>
<path opacity="0.1" d="M352.417 14.2987C352.417 14.2987 333.099 -0.158247 326.194 15.5014C326.194 15.5014 324.086 17.6851 325.599 20.2993C325.599 20.2993 326.32 19.2802 328.13 20.9702C328.775 21.5637 329.487 22.0799 330.251 22.5083C331.284 23.0844 332.478 23.3067 333.65 23.1413V23.1413C333.65 23.1413 340.84 24.5275 349.12 16.7293C349.12 16.7293 352.076 15.7862 352.348 15.2229L347.987 14.4696C347.987 14.4696 347.537 17.6788 345.284 19.1156C345.284 19.1156 348.069 14.6469 347.347 14.3241C347.202 14.2544 345.024 14.0076 345.024 14.0076C345.024 14.0076 344.189 19.603 340.644 21.6981C340.644 21.6981 344.67 16.8179 344.176 13.9063L340.866 13.7291C340.866 13.7291 340.296 19.6726 336.353 22.2235C336.353 22.2235 340.385 16.9762 340.15 13.7354L336.878 14.0012C336.878 14.0012 336.207 19.7866 332.909 21.888C332.909 21.888 336.96 15.3558 336.131 14.1152C336.131 14.1152 333.137 14.5393 332.397 15.033C332.397 15.033 331.821 19.1726 329.795 20.2233C329.795 20.2233 332.042 15.571 331.586 15.2419C331.586 15.2419 327.833 16.8369 326.358 18.6472C327.632 16.9121 329.339 15.5414 331.308 14.6722C330.082 14.1595 328.733 14.0186 327.428 14.2671C327.428 14.2671 329.042 12.4568 332.219 14.2987C332.219 14.2987 335.194 13.1721 335.701 13.3176C335.701 13.3176 332.821 11.0579 330.434 10.6592C330.434 10.6592 333.302 9.84264 336.562 13.191L339.847 12.8556C339.847 12.8556 336.201 9.69073 334.099 9.15271C334.099 9.15271 337.156 8.77293 340.688 12.8366L343.929 12.9758C343.929 12.9758 340.999 9.98823 338.783 8.91851C338.783 8.91851 341.695 9.1717 344.86 13.0518L347.012 13.3999C347.012 13.3999 344.822 11.2858 344.138 10.7415C343.455 10.1971 343.549 9.95658 343.549 9.95658C345.311 10.7355 346.821 11.9891 347.911 13.5772C347.911 13.5772 352.31 14.5393 352.417 14.2987Z" fill="#90B7D5"/>
<path opacity="0.1" d="M426.234 32.6105C426.234 32.6105 418.512 9.75403 403.947 18.7358C403.947 18.7358 400.972 19.3688 400.738 22.3501C400.738 22.3501 401.909 21.9197 402.428 24.3249C402.621 25.1805 402.912 26.011 403.295 26.7998C403.818 27.8615 404.671 28.7253 405.726 29.2621V29.2621C405.726 29.2621 410.865 34.4841 422.107 32.7561C422.107 32.7561 425.076 33.6549 425.62 33.3447L422.455 30.2369C422.455 30.2369 420.265 32.6231 417.594 32.5282C417.594 32.5282 422.423 30.4267 422.025 29.7495C421.942 29.6165 420.29 28.1797 420.29 28.1797C420.29 28.1797 416.455 32.313 412.34 32.0408C412.34 32.0408 418.423 30.3065 419.664 27.61L417.043 25.5909C417.043 25.5909 413.207 30.1609 408.505 30.0216C408.505 30.0216 414.834 27.9898 416.436 25.1794L413.587 23.5401C413.587 23.5401 409.789 27.9265 405.852 27.7873C405.852 27.7873 412.891 24.7047 412.91 23.2109C412.91 23.2109 410.207 21.8627 409.315 21.85C409.315 21.85 406.492 24.9326 404.251 24.6541C404.251 24.6541 408.732 22.0906 408.542 21.5652C408.542 21.5652 404.555 20.7487 402.308 21.407C404.34 20.6993 406.522 20.5357 408.637 20.9322C407.915 19.8176 406.884 18.9377 405.669 18.4004C405.669 18.4004 408.023 17.8244 409.6 21.1411C409.6 21.1411 412.688 21.907 413.018 22.3058C413.018 22.3058 411.929 18.8181 410.188 17.1344C410.188 17.1344 413.018 18.0902 413.79 22.7172L416.689 24.2996C416.689 24.2996 415.492 19.6093 414.049 17.9699C414.049 17.9699 416.79 19.3878 417.385 24.7364L419.98 26.6922C419.98 26.6922 419.259 22.5653 418.043 20.4259C418.043 20.4259 420.297 22.2868 420.702 27.2809L422.278 28.7874C422.278 28.7874 421.696 25.7871 421.455 24.9389C421.214 24.0907 421.411 24.0338 421.411 24.0338C422.417 25.6758 422.949 27.5642 422.949 29.49C422.949 29.49 426.012 32.7751 426.234 32.6105Z" fill="#90B7D5"/>
<path opacity="0.1" d="M375.837 33.7372C375.837 33.7372 351.848 31.066 353.829 48.0865C353.829 48.0865 353.114 51.0362 355.728 52.5173C355.728 52.5173 355.835 51.2514 358.26 51.821C359.116 52.0054 359.991 52.0924 360.868 52.0806C362.051 52.0592 363.196 51.6525 364.127 50.9222V50.9222C364.127 50.9222 371.033 48.4727 374.255 37.554C374.255 37.554 376.318 35.2436 376.274 34.617L372.128 36.1488C372.128 36.1488 373.394 39.1427 372.128 41.5227C372.128 41.5227 372.261 36.2627 371.495 36.345C371.337 36.345 369.337 37.2565 369.337 37.2565C369.337 37.2565 371.463 42.4784 369.476 46.118C369.476 46.118 370.476 39.8643 368.571 37.6109L365.627 39.1301C365.627 39.1301 368.159 44.5419 366.039 48.7448C366.039 48.7448 366.862 42.1746 365.007 39.5098L362.317 41.4087C362.317 41.4087 364.672 46.732 362.893 50.2196C362.893 50.2196 363.077 42.5354 361.728 41.8835C361.728 41.8835 359.361 43.7824 358.975 44.5672C358.975 44.5672 360.576 48.4283 359.367 50.3589C359.367 50.3589 358.943 45.2129 358.386 45.1622C358.386 45.1622 355.956 48.4347 355.601 50.745C355.821 48.6031 356.598 46.556 357.855 44.8078C356.541 44.9893 355.309 45.5502 354.31 46.4218C354.31 46.4218 354.778 44.0482 358.45 44.0229C358.45 44.0229 360.443 41.548 360.982 41.4151C360.982 41.4151 357.355 40.9277 355.095 41.7948C355.095 41.7948 357.152 39.6301 361.671 40.8897L364.336 38.9338C364.336 38.9338 359.519 37.9591 357.481 38.592C357.481 38.592 359.924 36.6931 365.026 38.4338L367.893 36.9083C367.893 36.9083 363.849 35.8196 361.399 36.0159C361.399 36.0159 364.039 34.7499 368.729 36.5032L370.767 35.712C370.767 35.712 367.799 34.9715 366.925 34.8322C366.052 34.6929 366.02 34.4524 366.02 34.4524C367.933 34.2329 369.87 34.5484 371.615 35.3639C371.615 35.3639 375.882 34.003 375.837 33.7372Z" fill="#90B7D5"/>
<path opacity="0.1" d="M585.729 219.937C585.729 219.937 561.752 217.266 563.734 234.268C563.734 234.268 563.018 237.217 565.632 238.698C565.632 238.698 565.74 237.432 568.164 237.996C569.02 238.186 569.896 238.273 570.772 238.255C571.956 238.237 573.102 237.83 574.032 237.097V237.097C574.032 237.097 580.938 234.647 584.128 223.735C584.128 223.735 586.191 221.418 586.147 220.798L582.001 222.323C582.001 222.323 583.267 225.324 582.001 227.704C582.001 227.704 582.134 222.437 581.368 222.526C581.21 222.526 579.21 223.431 579.21 223.431C579.21 223.431 581.336 228.653 579.349 232.293C579.349 232.293 580.349 226.045 578.444 223.786L575.5 225.311C575.5 225.311 578.032 230.723 575.918 234.926C575.918 234.926 576.735 228.356 574.88 225.685L572.19 227.583C572.19 227.583 574.545 232.907 572.766 236.388C572.766 236.388 572.95 228.704 571.601 228.058C571.601 228.058 569.24 229.957 568.848 230.742C568.848 230.742 570.456 234.603 569.24 236.534C569.24 236.534 568.816 231.388 568.259 231.337C568.259 231.337 565.829 234.609 565.474 236.92C565.694 234.778 566.471 232.731 567.728 230.983C566.413 231.161 565.18 231.722 564.183 232.597C564.183 232.597 564.651 230.217 568.323 230.191C568.323 230.191 570.323 227.716 570.854 227.59C570.854 227.59 567.228 227.096 564.968 227.963C564.968 227.963 567.025 225.805 571.551 227.064L574.209 225.109C574.209 225.109 569.449 224.21 567.379 224.83C567.379 224.83 569.823 222.931 574.924 224.665L577.792 223.146C577.792 223.146 573.747 222.058 571.298 222.254C571.298 222.254 573.937 220.988 578.627 222.741L580.665 221.944C580.665 221.944 577.697 221.203 576.823 221.07C575.95 220.937 575.918 220.69 575.918 220.69C577.831 220.467 579.769 220.78 581.514 221.596C581.514 221.596 585.793 220.209 585.729 219.937Z" fill="#90B7D5"/>
<path opacity="0.1" d="M622.384 242.332C622.384 242.332 598.407 239.667 600.389 256.662C600.389 256.662 599.68 259.612 602.287 261.093C602.287 261.093 602.395 259.827 604.819 260.396C605.674 260.582 606.547 260.667 607.421 260.65C608.599 260.626 609.738 260.222 610.668 259.498V259.498C610.668 259.498 617.567 257.048 620.757 246.129C620.757 246.129 622.827 243.819 622.777 243.192L618.631 244.718C618.631 244.718 619.897 247.718 618.631 250.098C618.631 250.098 618.764 244.838 617.998 244.92C617.839 244.92 615.839 245.826 615.839 245.826C615.839 245.826 617.966 251.048 615.979 254.687C615.979 254.687 616.979 248.44 615.073 246.186L612.13 247.705C612.13 247.705 614.662 253.117 612.548 257.32C612.548 257.32 613.364 250.75 611.51 248.085L608.82 249.984C608.82 249.984 611.174 255.307 609.402 258.795C609.402 258.795 609.579 251.105 608.231 250.459C608.231 250.459 605.87 252.358 605.478 253.143C605.478 253.143 607.085 257.004 605.87 258.934C605.87 258.934 605.446 253.788 604.889 253.738C604.889 253.738 602.458 257.01 602.11 259.32C602.329 257.179 603.104 255.133 604.357 253.383C603.044 253.565 601.812 254.126 600.813 254.997C600.813 254.997 601.287 252.617 604.959 252.598C604.959 252.598 606.952 250.123 607.49 249.991C607.49 249.991 603.864 249.503 601.604 250.37C601.604 250.37 603.661 248.206 608.187 249.465L610.845 247.509C610.845 247.509 606.085 246.61 604.015 247.231C604.015 247.231 606.459 245.332 611.56 247.073L614.428 245.547C614.428 245.547 610.383 244.458 607.934 244.655C607.934 244.655 610.573 243.389 615.263 245.142L617.301 244.351C617.301 244.351 614.333 243.61 613.466 243.471C612.599 243.332 612.554 243.091 612.554 243.091C614.468 242.872 616.405 243.187 618.15 244.003C618.15 244.003 622.447 242.604 622.384 242.332Z" fill="#90B7D5"/>
<path opacity="0.1" d="M541.004 53.701C541.004 53.701 521.686 39.2503 514.78 54.9036C514.78 54.9036 512.672 57.0873 514.185 59.7015C514.185 59.7015 514.907 58.6824 516.717 60.3724C517.358 60.969 518.068 61.4874 518.831 61.9169C519.865 62.4921 521.058 62.7143 522.23 62.5498V62.5498C522.23 62.5498 529.42 63.936 537.706 56.1442C537.706 56.1442 540.656 55.1948 540.934 54.6378L536.586 53.8529C536.586 53.8529 536.13 57.062 533.883 58.4989C533.883 58.4989 536.662 54.0301 535.94 53.7073C535.794 53.6377 533.623 53.3908 533.623 53.3908C533.623 53.3908 532.807 58.9736 529.262 61.0814C529.262 61.0814 533.294 56.2012 532.794 53.2895L529.484 53.1123C529.484 53.1123 528.92 59.0559 524.971 61.6131C524.971 61.6131 529.009 56.3658 528.768 53.125L525.49 53.3908C525.49 53.3908 524.857 59.1698 521.527 61.2713C521.527 61.2713 525.578 54.739 524.743 53.4984C524.743 53.4984 521.749 53.9225 521.008 54.4162C521.008 54.4162 520.439 58.5558 518.413 59.6065C518.413 59.6065 520.654 54.9542 520.198 54.6314C520.198 54.6314 516.445 56.2202 514.97 58.0305C516.246 56.2972 517.952 54.927 519.92 54.0554C518.695 53.5465 517.349 53.4058 516.046 53.6503C516.046 53.6503 517.66 51.84 520.837 53.682C520.837 53.682 523.806 52.5616 524.312 52.7009C524.312 52.7009 521.432 50.4412 519.046 50.0487C519.046 50.0487 521.92 49.2259 525.18 52.5806L528.465 52.2451C528.465 52.2451 524.819 49.0803 522.717 48.5486C522.717 48.5486 525.775 48.1625 529.3 52.2261L532.547 52.3717C532.547 52.3717 529.61 49.3841 527.401 48.3081C527.401 48.3081 530.313 48.5613 533.471 52.4414L535.63 52.7895C535.63 52.7895 533.446 50.6501 532.762 50.093C532.079 49.536 532.18 49.3525 532.18 49.3525C533.939 50.1335 535.446 51.3868 536.535 52.973C536.535 52.973 540.921 53.9605 541.004 53.701Z" fill="#90B7D5"/>
<path opacity="0.1" d="M555.929 158.027C555.929 158.027 549.27 134.841 534.294 143.165C534.294 143.165 531.294 143.627 530.92 146.627C530.92 146.627 532.11 146.253 532.522 148.678C532.674 149.549 532.929 150.399 533.281 151.21C533.751 152.3 534.565 153.207 535.598 153.792V153.792C535.598 153.792 540.497 159.236 551.802 158.02C551.802 158.02 554.726 159.046 555.283 158.767L552.289 155.514C552.289 155.514 549.992 157.805 547.333 157.59C547.333 157.59 552.245 155.691 551.865 155.014C551.789 154.874 550.207 153.362 550.207 153.362C550.207 153.362 546.194 157.324 542.092 156.862C542.092 156.862 548.251 155.406 549.606 152.786L547.074 150.646C547.074 150.646 543.035 155.039 538.345 154.697C538.345 154.697 544.725 152.944 546.485 150.216L543.713 148.45C543.713 148.45 539.693 152.659 535.794 152.343C535.794 152.343 542.966 149.577 543.054 148.089C543.054 148.089 540.409 146.621 539.516 146.57C539.516 146.57 536.56 149.52 534.313 149.14C534.313 149.14 538.908 146.779 538.744 146.247C538.744 146.247 534.794 145.253 532.522 145.804C534.58 145.194 536.761 145.13 538.851 145.62C538.182 144.475 537.192 143.551 536.003 142.962C536.003 142.962 538.383 142.487 539.801 145.874C539.801 145.874 542.845 146.772 543.162 147.19C543.162 147.19 542.232 143.652 540.567 141.899C540.567 141.899 543.352 142.975 543.915 147.633L546.738 149.349C546.738 149.349 545.751 144.601 544.384 142.93C544.384 142.93 547.055 144.468 547.416 149.836L549.947 151.906C549.947 151.906 549.409 147.754 548.295 145.576C548.295 145.576 550.466 147.538 550.644 152.539L552.15 154.121C552.15 154.121 551.707 151.096 551.517 150.235C551.327 149.374 551.517 149.254 551.517 149.254C552.454 150.937 552.903 152.849 552.815 154.773C552.815 154.773 555.701 158.179 555.929 158.027Z" fill="#90B7D5"/>
<path opacity="0.1" d="M407.549 210.272C407.549 210.272 394.617 189.903 382.61 202.094C382.61 202.094 379.863 203.36 380.344 206.366C380.344 206.366 381.388 205.67 382.464 207.886C382.851 208.671 383.331 209.406 383.895 210.076C384.65 210.989 385.684 211.63 386.838 211.899V211.899C386.838 211.899 393.073 215.747 403.58 211.392C403.58 211.392 406.675 211.557 407.131 211.133L403.333 208.854C403.333 208.854 401.77 211.702 399.156 212.24C399.156 212.24 403.346 209.075 402.783 208.493C402.675 208.379 400.726 207.379 400.726 207.379C400.726 207.379 397.985 212.304 393.921 213.019C393.921 213.019 399.422 209.886 399.991 206.987L396.959 205.651C396.959 205.651 394.32 211 389.724 211.981C389.724 211.981 395.358 208.506 396.276 205.392L393.111 204.48C393.111 204.48 390.44 209.651 386.61 210.443C386.61 210.443 392.712 205.771 392.377 204.316C392.377 204.316 389.427 203.651 388.579 203.854C388.579 203.854 386.572 207.518 384.306 207.784C384.306 207.784 388.053 204.227 387.743 203.759C387.743 203.759 383.673 203.917 381.648 205.088C383.455 203.917 385.537 203.241 387.686 203.126C386.724 202.215 385.516 201.605 384.211 201.372C384.211 201.372 386.357 200.252 388.642 203.1C388.642 203.1 391.807 203.1 392.244 203.417C392.244 203.417 390.345 200.252 388.262 199.068C388.262 199.068 391.237 199.321 393.086 203.632L396.282 204.48C396.282 204.48 393.997 200.208 392.218 198.986C392.218 198.986 395.212 199.708 397.067 204.765L400.055 206.031C400.055 206.031 398.371 202.201 396.681 200.41C396.681 200.41 399.314 201.676 400.89 206.43L402.789 207.525C402.789 207.525 401.523 204.746 401.074 203.98C400.624 203.214 400.801 203.037 400.801 203.037C402.171 204.39 403.138 206.097 403.593 207.968C403.593 207.968 407.378 210.487 407.549 210.272Z" fill="#90B7D5"/>
<path d="M492.537 106.199C492.537 106.199 480.239 85.4443 467.852 97.2555C467.852 97.2555 465.067 98.4581 465.459 101.458C465.459 101.458 466.516 100.787 467.529 103.034C467.891 103.833 468.348 104.586 468.89 105.275C469.617 106.209 470.631 106.876 471.776 107.174V107.174C471.776 107.174 477.884 111.212 488.524 107.174C488.524 107.174 491.613 107.434 492.082 107.022L488.366 104.63C488.366 104.63 486.72 107.421 484.087 107.883C484.087 107.883 488.372 104.826 487.834 104.25C487.72 104.129 485.809 103.066 485.809 103.066C485.809 103.066 482.916 107.908 478.846 108.497C478.846 108.497 484.442 105.535 485.094 102.661L482.106 101.256C482.106 101.256 479.302 106.528 474.675 107.37C474.675 107.37 480.416 104.073 481.429 100.99L478.302 99.9772C478.302 99.9772 475.466 105.041 471.618 105.737C471.618 105.737 477.859 101.256 477.568 99.7937C477.568 99.7937 474.643 99.0341 473.77 99.2113C473.77 99.2113 471.649 102.813 469.377 103.009C469.377 103.009 473.232 99.5785 472.941 99.0974C472.941 99.0974 468.864 99.1291 466.807 100.237C468.65 99.1252 470.751 98.5143 472.903 98.4644C471.967 97.5235 470.777 96.8767 469.478 96.6035C469.478 96.6035 471.662 95.5465 473.909 98.4644C473.909 98.4644 477.074 98.572 477.498 98.8949C477.498 98.8949 475.707 95.73 473.656 94.4261C473.656 94.4261 476.618 94.7679 478.334 99.1354L481.498 100.085C481.498 100.085 479.353 95.7427 477.606 94.4641C477.606 94.4641 480.581 95.2806 482.277 100.389L485.22 101.762C485.22 101.762 483.657 97.8821 482.055 96.0655C482.055 96.0655 484.644 97.4137 486.081 102.212L487.936 103.364C487.936 103.364 486.746 100.547 486.328 99.7683C485.91 98.9898 486.087 98.8189 486.087 98.8189C487.414 100.213 488.328 101.949 488.727 103.832C488.727 103.832 492.354 106.408 492.537 106.199Z" fill="#90B7D5"/>
<path d="M414.727 149.842C414.727 149.842 415.36 125.726 398.605 129.125C398.605 129.125 395.605 128.663 394.339 131.41C394.339 131.41 395.605 131.41 395.25 133.847C395.134 134.716 395.122 135.596 395.212 136.468C395.327 137.65 395.827 138.763 396.637 139.633C396.637 139.633 399.656 146.304 410.802 148.57C410.802 148.57 413.277 150.437 413.898 150.336L411.999 146.336C411.999 146.336 409.119 147.817 406.644 146.81C406.644 146.81 411.897 146.5 411.752 145.728C411.752 145.57 410.663 143.646 410.663 143.646C410.663 143.646 405.637 146.209 401.871 144.525C401.871 144.525 408.201 145 410.271 142.918L408.505 140.114C408.505 140.114 403.327 143.076 398.96 141.329C398.96 141.329 405.574 141.595 408.081 139.525L405.973 136.993C405.973 136.993 400.865 139.791 397.244 138.31C397.244 138.31 404.916 137.848 405.473 136.449C405.473 136.449 403.397 134.252 402.561 133.917C402.561 133.917 398.852 135.816 396.826 134.79C396.826 134.79 401.89 133.942 401.922 133.379C401.922 133.379 398.459 131.233 396.124 131.075C398.278 131.113 400.384 131.716 402.232 132.822C401.944 131.528 401.284 130.347 400.333 129.423C400.333 129.423 402.745 129.695 403.074 133.347C403.074 133.347 405.713 135.132 405.884 135.626C405.884 135.626 406.068 131.974 405.011 129.796C405.011 129.796 407.34 131.664 406.467 136.272L408.638 138.765C408.638 138.765 409.131 133.942 408.34 131.936C408.34 131.936 410.416 134.208 409.138 139.436L410.891 142.165C410.891 142.165 411.638 138.044 411.239 135.62C411.239 135.62 412.708 138.151 411.366 142.968L412.328 144.931C412.328 144.931 412.815 141.911 412.879 141.031C412.942 140.152 413.182 140.095 413.182 140.095C413.563 141.983 413.412 143.94 412.746 145.747C412.746 145.747 414.448 149.925 414.727 149.842Z" fill="#90B7D5"/>
<path opacity="0.1" d="M442.425 456.275C451.839 456.275 459.471 454.985 459.471 453.395C459.471 451.804 451.839 450.515 442.425 450.515C433.011 450.515 425.379 451.804 425.379 453.395C425.379 454.985 433.011 456.275 442.425 456.275Z" fill="#90B7D5"/>
<path opacity="0.1" d="M380.287 500C389.701 500 397.333 498.711 397.333 497.12C397.333 495.529 389.701 494.24 380.287 494.24C370.873 494.24 363.241 495.529 363.241 497.12C363.241 498.711 370.873 500 380.287 500Z" fill="#90B7D5"/>
<path opacity="0.1" d="M58.9546 477.599C68.3688 477.599 76.0004 476.31 76.0004 474.719C76.0004 473.129 68.3688 471.839 58.9546 471.839C49.5405 471.839 41.9088 473.129 41.9088 474.719C41.9088 476.31 49.5405 477.599 58.9546 477.599Z" fill="#90B7D5"/>
<path opacity="0.1" d="M509.577 497.12C518.991 497.12 526.623 495.831 526.623 494.24C526.623 492.649 518.991 491.36 509.577 491.36C500.163 491.36 492.531 492.649 492.531 494.24C492.531 495.831 500.163 497.12 509.577 497.12Z" fill="#90B7D5"/>
<path d="M527.325 462.003C541.382 462.003 552.777 460.076 552.777 457.699C552.777 455.322 541.382 453.395 527.325 453.395C513.269 453.395 501.874 455.322 501.874 457.699C501.874 460.076 513.269 462.003 527.325 462.003Z" fill="#90B7D5"/>
<path d="M537.877 450.654C539.039 449.71 539.885 448.433 540.301 446.995C540.618 445.539 539.997 443.799 538.611 443.267C537.054 442.672 535.389 443.748 534.123 444.837C532.857 445.926 531.421 447.173 529.769 446.945C530.617 446.174 531.251 445.198 531.61 444.11C531.97 443.022 532.042 441.859 531.819 440.735C531.748 440.269 531.551 439.832 531.25 439.469C530.383 438.545 528.819 438.944 527.781 439.672C524.49 441.989 523.572 446.457 523.553 450.483C523.224 449.033 523.502 447.521 523.496 446.052C523.489 444.584 523.078 442.887 521.818 442.115C521.045 441.684 520.172 441.466 519.287 441.482C517.805 441.431 516.153 441.577 515.147 442.659C513.881 444.001 514.216 446.261 515.305 447.723C516.394 449.185 518.059 450.128 519.59 451.154C520.816 451.886 521.863 452.883 522.654 454.072C522.744 454.237 522.818 454.411 522.875 454.591H532.155C534.232 453.545 536.157 452.22 537.877 450.654V450.654Z" fill="#90B7D5"/>
<path d="M47.5105 461.332C47.5105 461.332 57.2266 461.035 60.1698 458.946C63.1131 456.857 75.1269 454.369 75.8548 457.718C76.5827 461.066 90.4637 474.358 79.488 474.447C68.5124 474.536 53.9858 472.738 51.0614 470.953C48.1371 469.168 47.5105 461.332 47.5105 461.332Z" fill="#A8A8A8"/>
<path opacity="0.2" d="M79.6716 473.282C68.6959 473.371 54.1693 471.573 51.245 469.788C49.017 468.434 48.1308 463.566 47.8333 461.319H47.5105C47.5105 461.319 48.1435 469.162 51.0488 470.94C53.9541 472.719 68.4997 474.523 79.4754 474.434C82.6402 474.434 83.7352 473.282 83.6783 471.611C83.2352 472.63 82.0262 473.263 79.6716 473.282Z" fill="black"/>
</g>
<defs>
<linearGradient id="paint0_linear" x1="141.145" y1="274.341" x2="338.714" y2="274.341" gradientUnits="userSpaceOnUse">
<stop stop-color="#808080" stop-opacity="0.25"/>
<stop offset="0.54" stop-color="#808080" stop-opacity="0.12"/>
<stop offset="1" stop-color="#808080" stop-opacity="0.1"/>
</linearGradient>
<clipPath id="clip0">
<rect width="639.006" height="500" fill="white"/>
</clipPath>
</defs>
</svg>
