<svg width="95" height="108" viewBox="0 0 95 108" fill="none" xmlns="http://www.w3.org/2000/svg">
<g id="padlock-icon" fill="#5B7E9A" filter="url(#filter0_d)">
<path id="body" d="M9.375 92.5H75.625C78.0273 92.5 80 90.5664 80 88.1836V46.7969C80 44.4141 78.0469 42.5 75.625 42.5H9.375C6.95313 42.5 5 44.4336 5 46.7969V88.1836C5 90.5664 6.95313 92.5 9.375 92.5Z"/>
<path id="closed" d="M71.8125 42.5V36.4648C71.8125 28.3594 68.6484 19.3555 63.4922 13.9258C58.3555 8.49609 50.9922 5 42.9258 5H42.9062H42.8867C34.8203 5 27.457 8.49609 22.3203 13.9062C17.1641 19.3359 14 28.3398 14 36.4453V42.5H24.3516V36.4648C24.3516 31.1328 26.2852 24.5313 29.8398 20.7813V20.7227C33.2773 17.0898 38.0234 14.9609 42.8867 14.9609H42.9062H42.9258C47.7891 14.9609 52.5352 17.0898 55.9727 20.7227V20.7617L55.9531 20.7813C59.5273 24.5313 61.4414 31.1328 61.4414 36.4648V42.5H71.8125Z" />
<path id="opened" d="M24.3516 42.5V36.4648C24.3516 31.1328 26.2852 24.5313 29.8398 20.7813V20.7227C33.2773 17.0898 38.0234 14.9609 42.8867 14.9609H42.9062H42.9258C47.7891 14.9609 52.5352 17.0898 55.9727 20.7227V20.7617V20.7813C58.1797 23.1055 59.7617 26.5039 60.6602 30.0195H71.0898C69.9375 23.9063 67.2422 17.9492 63.4336 13.9258C58.3164 8.49609 50.9922 5 42.9258 5H42.9062H42.8867C34.8203 5 27.457 8.49609 22.3203 13.9062C17.1641 19.3359 14 28.3398 14 36.4453V42.5H24.3516Z" />
<g id="logo" stroke="#6F90AA">
<path id="cloud" d="M54.2622 66.9553H33.3601C26.1644 66.3694 25.8217 55.5298 34.7308 55.8227C38.1573 49.0846 49.8076 49.0846 51.8636 57.8735C59.402 57.8735 59.7446 66.0764 54.2622 66.9553Z" stroke-width="3"/>
<path id="circle3" d="M57 80.3961C57 81.2596 56.2764 82 55.3333 82C54.3903 82 53.6667 81.2596 53.6667 80.3961C53.6667 79.5326 54.3903 78.7922 55.3333 78.7922C56.2764 78.7922 57 79.5326 57 80.3961Z" stroke-width="2"/>
<path id="circle2" d="M45 79.7579C45 80.6214 44.2764 81.3618 43.3333 81.3618C42.3903 81.3618 41.6667 80.6214 41.6667 79.7579C41.6667 78.8944 42.3903 78.154 43.3333 78.154C44.2764 78.154 45 78.8944 45 79.7579Z" stroke-width="2"/>
<path id="circle1" d="M32.3333 80.3961C32.3333 81.2596 31.6097 82 30.6667 82C29.7236 82 29 81.2596 29 80.3961C29 79.5326 29.7236 78.7922 30.6667 78.7922C31.6097 78.7922 32.3333 79.5326 32.3333 80.3961Z" stroke-width="2"/>
<path id="line3" d="M52.9335 77.4726L49.4003 74.537L49.4003 68.9019" stroke-width="2"/>
<line id="line2" x1="43.6667" y1="69.2274" x2="43.6667" y2="75.7371" stroke-width="2"/>
<path id="line1" d="M33.0665 77.4726L36.5997 74.537L36.5997 68.9019" stroke-width="2"/>
</g>
</g>
<defs>
<filter id="filter0_d" x="0" y="0" width="95" height="107.5" filterUnits="userSpaceOnUse" color-interpolation-filters="sRGB">
<feFlood flood-opacity="0" result="BackgroundImageFix"/>
<feColorMatrix in="SourceAlpha" type="matrix" values="0 0 0 0 0 0 0 0 0 0 0 0 0 0 0 0 0 0 127 0"/>
<feOffset dx="5" dy="5"/>
<feGaussianBlur stdDeviation="5"/>
<feColorMatrix type="matrix" values="0 0 0 0 0.5 0 0 0 0 0.65 0 0 0 0 0.75 0 0 0 0.2 0"/>
<feBlend mode="normal" in2="BackgroundImageFix" result="effect1_dropShadow"/>
<feBlend mode="normal" in="SourceGraphic" in2="effect1_dropShadow" result="shape"/>
</filter>
</defs>
</svg>
