<svg width="279" height="271" viewBox="0 0 279 271" fill="none" xmlns="http://www.w3.org/2000/svg">
<g opacity="0.3">
<path d="M194.869 264.288H188.712L188.359 240.906L194.869 240.537V264.288Z" fill="#9F616A"/>
<path d="M196.446 270.263L176.58 270.262V270.006C176.582 267.955 177.398 265.989 178.848 264.539C180.297 263.09 182.263 262.274 184.314 262.272H196.446V270.263Z" fill="#2F2E41"/>
<path d="M230.118 257.194L224.473 259.655L214.806 238.361L220.627 235.423L230.118 257.194Z" fill="#9F616A"/>
<path d="M215.74 269.98L215.637 269.744C215.231 268.813 215.013 267.811 214.994 266.796C214.975 265.78 215.157 264.771 215.528 263.826C215.9 262.881 216.453 262.018 217.158 261.286C217.863 260.555 218.705 259.97 219.636 259.564L230.757 254.716L233.951 262.041L215.74 269.98Z" fill="#2F2E41"/>
<path d="M205.811 79.7199C213.18 79.7199 219.153 73.7465 219.153 66.3778C219.153 59.0091 213.18 53.0356 205.811 53.0356C198.442 53.0356 192.469 59.0091 192.469 66.3778C192.469 73.7465 198.442 79.7199 205.811 79.7199Z" fill="#9F616A"/>
<path d="M229.694 246.032L212.449 203.905L220.824 164.488L204.935 163.625L196.189 207.723L218.238 251.452L229.694 246.032Z" fill="#2F2E41"/>
<path d="M210.847 156.604L202.717 206.984L200.273 255.272L186.239 255.148L185.719 162.763L210.847 156.604Z" fill="#2F2E41"/>
<path d="M222 159.477L221.2 166.774L181.418 168.554L184.111 157.582L222 159.477Z" fill="#CBCBCB"/>
<path d="M184.172 173.252C183.791 172.773 183.51 172.223 183.344 171.635C183.177 171.046 183.129 170.43 183.203 169.823C183.276 169.216 183.469 168.629 183.771 168.097C184.073 167.564 184.477 167.097 184.96 166.723C185.163 166.566 185.378 166.425 185.603 166.303L201.206 107.668L210.456 111.733L192.126 168.395C192.562 169.344 192.665 170.413 192.418 171.429C192.17 172.444 191.587 173.346 190.762 173.987C189.788 174.757 188.55 175.111 187.316 174.974C186.082 174.836 184.952 174.218 184.172 173.252Z" fill="#9F616A"/>
<path d="M194.034 92.5622L195.874 88.761C195.874 88.761 204.935 80.9275 214.493 85.6232L215.966 90.0115L223.761 102.599L222 160.74C222 160.74 189.479 158.267 181.418 161.214L184.961 115.142L194.034 92.5622Z" fill="#3F3D56"/>
<path d="M195.726 166.35L181.995 162.51L194.694 122.822L195.844 100.664C195.91 99.5444 196.211 98.4517 196.726 97.4559C197.241 96.4602 197.96 95.5837 198.835 94.8831C199.89 94.0284 201.109 93.401 202.418 93.0403C203.727 92.6795 205.096 92.5932 206.439 92.7868C210.926 93.4012 214.227 96.8323 214.287 100.945L214.288 100.965L214.285 100.985L209.875 132.043L208.461 137.099L195.726 166.35Z" fill="#CBCBCB"/>
<path d="M211.859 76.8358L214.896 77.6036L219.499 72.7099C219.499 72.7099 227.959 53.0856 209.261 50.0826C190.563 47.0795 194.646 54.661 192.146 59.4154L199.787 61.4019L206.663 68.4312C206.663 68.4312 211.15 65.1446 212.47 68.1256C213.79 71.1066 211.859 76.8358 211.859 76.8358Z" fill="#2F2E41"/>
<path d="M149 191H0V0H149V191Z" fill="white"/>
<path d="M149 191H0V0H149V191ZM2.20146 188.178H146.799V2.82201H2.20146V188.178Z" fill="#E5E5E5"/>
<path d="M122 82H32V87H122V82Z" fill="#90B7D5"/>
<path d="M122 93H32V98H122V93Z" fill="#90B7D5"/>
<path d="M122 104H32V109H122V104Z" fill="#90B7D5"/>
<path d="M26.5 87C27.8807 87 29 85.8807 29 84.5C29 83.1193 27.8807 82 26.5 82C25.1193 82 24 83.1193 24 84.5C24 85.8807 25.1193 87 26.5 87Z" fill="#90B7D5"/>
<path d="M122 34H32V39H122V34Z" fill="#E5E5E5"/>
<path d="M122 45H32V50H122V45Z" fill="#E5E5E5"/>
<path d="M122 56H32V61H122V56Z" fill="#E5E5E5"/>
<path d="M26.5 39C27.8807 39 29 37.8807 29 36.5C29 35.1193 27.8807 34 26.5 34C25.1193 34 24 35.1193 24 36.5C24 37.8807 25.1193 39 26.5 39Z" fill="#E5E5E5"/>
<path d="M122 131H32V136H122V131Z" fill="#E5E5E5"/>
<path d="M122 142H32V147H122V142Z" fill="#E5E5E5"/>
<path d="M122 153H32V158H122V153Z" fill="#E5E5E5"/>
<path d="M26.5 136C27.8807 136 29 134.881 29 133.5C29 132.119 27.8807 131 26.5 131C25.1193 131 24 132.119 24 133.5C24 134.881 25.1193 136 26.5 136Z" fill="#E5E5E5"/>
<path d="M278.054 271H144.746C144.628 271 144.514 270.942 144.431 270.839C144.347 270.736 144.3 270.596 144.3 270.45C144.3 270.304 144.347 270.164 144.431 270.061C144.514 269.958 144.628 269.9 144.746 269.9H278.054C278.172 269.9 278.286 269.958 278.369 270.061C278.453 270.164 278.5 270.304 278.5 270.45C278.5 270.596 278.453 270.736 278.369 270.839C278.286 270.942 278.172 271 278.054 271Z" fill="#CBCBCB"/>
</g>
</svg>
