<svg width="352" height="271" viewBox="0 0 352 271" fill="none" xmlns="http://www.w3.org/2000/svg">
<g opacity="0.3">
<path d="M267.869 264.288H261.712L261.359 240.906L267.869 240.537V264.288Z" fill="#9F616A"/>
<path d="M269.446 270.263L249.58 270.262V270.006C249.582 267.955 250.398 265.989 251.848 264.539C253.297 263.09 255.263 262.274 257.314 262.272H269.446V270.263Z" fill="#2F2E41"/>
<path d="M303.118 257.194L297.473 259.655L287.806 238.361L293.627 235.423L303.118 257.194Z" fill="#9F616A"/>
<path d="M288.74 269.98L288.637 269.744C288.231 268.813 288.013 267.811 287.994 266.796C287.975 265.78 288.157 264.771 288.528 263.826C288.9 262.881 289.453 262.018 290.158 261.286C290.863 260.555 291.705 259.97 292.636 259.564L303.757 254.716L306.951 262.041L288.74 269.98Z" fill="#2F2E41"/>
<path d="M278.811 79.7199C286.18 79.7199 292.153 73.7465 292.153 66.3778C292.153 59.0091 286.18 53.0356 278.811 53.0356C271.442 53.0356 265.469 59.0091 265.469 66.3778C265.469 73.7465 271.442 79.7199 278.811 79.7199Z" fill="#9F616A"/>
<path d="M302.694 246.032L285.449 203.905L293.824 164.488L277.935 163.625L269.189 207.723L291.238 251.452L302.694 246.032Z" fill="#2F2E41"/>
<path d="M283.847 156.604L275.717 206.984L273.273 255.272L259.239 255.148L258.719 162.763L283.847 156.604Z" fill="#2F2E41"/>
<path d="M295 159.477L294.2 166.774L254.418 168.554L257.111 157.582L295 159.477Z" fill="#CBCBCB"/>
<path d="M257.172 173.252C256.791 172.773 256.51 172.223 256.344 171.635C256.177 171.046 256.129 170.43 256.203 169.823C256.276 169.216 256.469 168.629 256.771 168.097C257.073 167.564 257.477 167.097 257.96 166.723C258.163 166.566 258.378 166.425 258.603 166.303L274.206 107.668L283.456 111.733L265.126 168.395C265.562 169.344 265.665 170.413 265.418 171.429C265.17 172.444 264.587 173.346 263.762 173.987C262.788 174.757 261.55 175.111 260.316 174.974C259.082 174.836 257.952 174.218 257.172 173.252Z" fill="#9F616A"/>
<path d="M267.034 92.5622L268.874 88.761C268.874 88.761 277.935 80.9275 287.493 85.6232L288.966 90.0115L296.761 102.599L295 160.74C295 160.74 262.479 158.267 254.418 161.214L257.961 115.142L267.034 92.5622Z" fill="#3F3D56"/>
<path d="M268.726 166.35L254.995 162.51L267.694 122.822L268.844 100.664C268.91 99.5444 269.211 98.4517 269.726 97.4559C270.241 96.4602 270.96 95.5837 271.835 94.8831C272.89 94.0284 274.109 93.401 275.418 93.0403C276.727 92.6795 278.096 92.5932 279.439 92.7868C283.926 93.4012 287.227 96.8323 287.287 100.945L287.288 100.965L287.285 100.985L282.875 132.043L281.461 137.099L268.726 166.35Z" fill="#CBCBCB"/>
<path d="M284.859 76.8358L287.896 77.6036L292.499 72.7099C292.499 72.7099 300.959 53.0856 282.261 50.0826C263.563 47.0795 267.646 54.661 265.146 59.4154L272.787 61.4019L279.663 68.4312C279.663 68.4312 284.15 65.1446 285.47 68.1256C286.79 71.1066 284.859 76.8358 284.859 76.8358Z" fill="#2F2E41"/>
<path d="M182 191H33V0H182V191Z" fill="white"/>
<path d="M182 191H33V0H182V191ZM35.2015 188.178H179.799V2.82201H35.2015V188.178Z" fill="#E5E5E5"/>
<path d="M155 82H65V87H155V82Z" fill="#90B7D5"/>
<path d="M155 93H65V98H155V93Z" fill="#90B7D5"/>
<path d="M155 104H65V109H155V104Z" fill="#90B7D5"/>
<path d="M59.5 87C60.8807 87 62 85.8807 62 84.5C62 83.1193 60.8807 82 59.5 82C58.1193 82 57 83.1193 57 84.5C57 85.8807 58.1193 87 59.5 87Z" fill="#90B7D5"/>
<path d="M155 34H65V39H155V34Z" fill="#E5E5E5"/>
<path d="M155 45H65V50H155V45Z" fill="#E5E5E5"/>
<path d="M155 56H65V61H155V56Z" fill="#E5E5E5"/>
<path d="M59.5 39C60.8807 39 62 37.8807 62 36.5C62 35.1193 60.8807 34 59.5 34C58.1193 34 57 35.1193 57 36.5C57 37.8807 58.1193 39 59.5 39Z" fill="#E5E5E5"/>
<path d="M155 131H65V136H155V131Z" fill="#E5E5E5"/>
<path d="M155 142H65V147H155V142Z" fill="#E5E5E5"/>
<path d="M155 153H65V158H155V153Z" fill="#E5E5E5"/>
<path d="M59.5 136C60.8807 136 62 134.881 62 133.5C62 132.119 60.8807 131 59.5 131C58.1193 131 57 132.119 57 133.5C57 134.881 58.1193 136 59.5 136Z" fill="#E5E5E5"/>
<path d="M351.054 271H217.746C217.628 271 217.514 270.942 217.431 270.839C217.347 270.736 217.3 270.596 217.3 270.45C217.3 270.304 217.347 270.164 217.431 270.061C217.514 269.958 217.628 269.9 217.746 269.9H351.054C351.172 269.9 351.286 269.958 351.369 270.061C351.453 270.164 351.5 270.304 351.5 270.45C351.5 270.596 351.453 270.736 351.369 270.839C351.286 270.942 351.172 271 351.054 271Z" fill="#CBCBCB"/>
</g>
</svg>
